<mxfile host="app.diagrams.net" modified="2022-10-20T06:47:43.618Z" agent="5.0 (Macintosh; Intel Mac OS X 10_15_7) AppleWebKit/605.1.15 (KHTML, like Gecko) Version/15.3 Safari/605.1.15" etag="NEzw7hNkoUwI-vj8WX23" version="20.4.2" type="github">
  <diagram id="xv_Z_rrtoqEzJXmBa6GU" name="第 1 页">
    <mxGraphModel dx="885" dy="776" grid="1" gridSize="10" guides="1" tooltips="1" connect="1" arrows="1" fold="1" page="1" pageScale="1" pageWidth="827" pageHeight="1169" math="0" shadow="0">
      <root>
        <mxCell id="0" />
        <mxCell id="1" parent="0" />
        <mxCell id="aggRE9AeoPP2x4ic-RaH-2" style="edgeStyle=orthogonalEdgeStyle;rounded=0;orthogonalLoop=1;jettySize=auto;html=1;entryX=0;entryY=0.5;entryDx=0;entryDy=0;startArrow=none;" edge="1" parent="1" source="aggRE9AeoPP2x4ic-RaH-4" target="aggRE9AeoPP2x4ic-RaH-3">
          <mxGeometry relative="1" as="geometry">
            <mxPoint x="470" y="355" as="targetPoint" />
          </mxGeometry>
        </mxCell>
        <mxCell id="aggRE9AeoPP2x4ic-RaH-1" value="TCNN&lt;br&gt;标准算子+自定义Plugin" style="rounded=1;whiteSpace=wrap;html=1;" vertex="1" parent="1">
          <mxGeometry x="260" y="325" width="130" height="60" as="geometry" />
        </mxCell>
        <mxCell id="aggRE9AeoPP2x4ic-RaH-3" value="可扩展性&lt;br&gt;Plugin兼容更大尺寸维度" style="rounded=1;whiteSpace=wrap;html=1;" vertex="1" parent="1">
          <mxGeometry x="500" y="310" width="130" height="90" as="geometry" />
        </mxCell>
        <mxCell id="aggRE9AeoPP2x4ic-RaH-4" value="" style="verticalLabelPosition=bottom;verticalAlign=top;html=1;shape=mxgraph.basic.x;fillColor=#e51400;strokeColor=#B20000;fontColor=#ffffff;" vertex="1" parent="1">
          <mxGeometry x="420" y="335" width="40" height="40" as="geometry" />
        </mxCell>
        <mxCell id="aggRE9AeoPP2x4ic-RaH-5" value="" style="edgeStyle=orthogonalEdgeStyle;rounded=0;orthogonalLoop=1;jettySize=auto;html=1;entryX=0;entryY=0.5;entryDx=0;entryDy=0;endArrow=none;" edge="1" parent="1" source="aggRE9AeoPP2x4ic-RaH-1" target="aggRE9AeoPP2x4ic-RaH-4">
          <mxGeometry relative="1" as="geometry">
            <mxPoint x="500" y="355" as="targetPoint" />
            <mxPoint x="390" y="355" as="sourcePoint" />
          </mxGeometry>
        </mxCell>
        <mxCell id="aggRE9AeoPP2x4ic-RaH-9" value="" style="edgeStyle=orthogonalEdgeStyle;rounded=0;orthogonalLoop=1;jettySize=auto;html=1;" edge="1" parent="1" source="aggRE9AeoPP2x4ic-RaH-7" target="aggRE9AeoPP2x4ic-RaH-8">
          <mxGeometry relative="1" as="geometry" />
        </mxCell>
        <mxCell id="aggRE9AeoPP2x4ic-RaH-13" style="edgeStyle=orthogonalEdgeStyle;rounded=0;orthogonalLoop=1;jettySize=auto;html=1;" edge="1" parent="1" source="aggRE9AeoPP2x4ic-RaH-7">
          <mxGeometry relative="1" as="geometry">
            <mxPoint x="370" y="540" as="targetPoint" />
          </mxGeometry>
        </mxCell>
        <mxCell id="aggRE9AeoPP2x4ic-RaH-7" value="PyTorch模型" style="shape=cylinder3;whiteSpace=wrap;html=1;boundedLbl=1;backgroundOutline=1;size=15;" vertex="1" parent="1">
          <mxGeometry x="70" y="500" width="60" height="80" as="geometry" />
        </mxCell>
        <mxCell id="aggRE9AeoPP2x4ic-RaH-10" style="edgeStyle=orthogonalEdgeStyle;rounded=0;orthogonalLoop=1;jettySize=auto;html=1;entryX=-0.008;entryY=0.633;entryDx=0;entryDy=0;entryPerimeter=0;" edge="1" parent="1" source="aggRE9AeoPP2x4ic-RaH-8" target="aggRE9AeoPP2x4ic-RaH-1">
          <mxGeometry relative="1" as="geometry" />
        </mxCell>
        <mxCell id="aggRE9AeoPP2x4ic-RaH-8" value="Tf重写" style="shape=cylinder3;whiteSpace=wrap;html=1;boundedLbl=1;backgroundOutline=1;size=15;" vertex="1" parent="1">
          <mxGeometry x="150" y="385" width="60" height="80" as="geometry" />
        </mxCell>
        <mxCell id="aggRE9AeoPP2x4ic-RaH-11" value="Tensorflow2tcnn" style="shape=document;whiteSpace=wrap;html=1;boundedLbl=1;" vertex="1" parent="1">
          <mxGeometry x="140" y="335" width="100" height="35" as="geometry" />
        </mxCell>
        <mxCell id="aggRE9AeoPP2x4ic-RaH-15" style="edgeStyle=orthogonalEdgeStyle;rounded=0;orthogonalLoop=1;jettySize=auto;html=1;" edge="1" parent="1" source="aggRE9AeoPP2x4ic-RaH-14" target="aggRE9AeoPP2x4ic-RaH-3">
          <mxGeometry relative="1" as="geometry" />
        </mxCell>
        <mxCell id="aggRE9AeoPP2x4ic-RaH-14" value="torch2tcnn&lt;br&gt;torch2wnn" style="shape=cylinder3;whiteSpace=wrap;html=1;boundedLbl=1;backgroundOutline=1;size=15;" vertex="1" parent="1">
          <mxGeometry x="370" y="505" width="60" height="70" as="geometry" />
        </mxCell>
        <mxCell id="aggRE9AeoPP2x4ic-RaH-16" value="" style="verticalLabelPosition=bottom;verticalAlign=top;html=1;shape=mxgraph.basic.tick;fillColor=#d5e8d4;gradientColor=#97d077;strokeColor=#82b366;" vertex="1" parent="1">
          <mxGeometry x="470" y="470" width="50" height="60" as="geometry" />
        </mxCell>
        <mxCell id="aggRE9AeoPP2x4ic-RaH-17" value="1. 重写torch parse算子；&lt;br&gt;2. 将tcnn算子对齐到pytorch" style="whiteSpace=wrap;html=1;shape=mxgraph.basic.roundRectCallout;dx=30;dy=15;size=5;boundedLbl=1;" vertex="1" parent="1">
          <mxGeometry x="220" y="470" width="140" height="70" as="geometry" />
        </mxCell>
        <UserObject label="https://git.woa.com/lewisjin/wnn" link="https://git.woa.com/lewisjin/wnn" id="aggRE9AeoPP2x4ic-RaH-18">
          <mxCell style="text;whiteSpace=wrap;html=1;" vertex="1" parent="1">
            <mxGeometry x="470" y="545" width="200" height="40" as="geometry" />
          </mxCell>
        </UserObject>
        <mxCell id="aggRE9AeoPP2x4ic-RaH-19" value="" style="shape=image;verticalLabelPosition=bottom;labelBackgroundColor=default;verticalAlign=top;aspect=fixed;imageAspect=0;image=data:image/png,iVBORw0KGgoAAAANSUhEUgAAAOoAAADgCAYAAAAND/ooAAAMbWlDQ1BJQ0MgUHJvZmlsZQAASImVVwdYU8kWnluSkJDQAghICb0jUgNICaEFkF4EGyEJJJQYE4KKvSwquHYRxYquiii2lWYBsSuLYu+LBRVlXdTFhsqbkICu+8r3zvfNvX/OnPlPuTO59wCg+YErkeShWgDkiwukCeHBjDFp6QzSU0AApoAKUEDj8mQSVlxcNIAyeP+7vLsBEMX9qrOC65/z/1V0+AIZDwBkHMSZfBkvH+JmAPANPIm0AACiQm85pUCiwHMg1pXCACFercDZSrxLgTOV+OiATVICG+LLAKhRuVxpNgAa96CeUcjLhjwanyF2FfNFYgA0nSAO4Am5fIgVsTvl509S4HKI7aC9BGIYD2BmfseZ/Tf+zCF+Ljd7CCvzGhC1EJFMksed9n+W5n9Lfp580IcNHFShNCJBkT+s4a3cSVEKTIW4W5wZE6uoNcQfRHxl3QFAKUJ5RLLSHjXmydiwfkAfYlc+NyQKYmOIw8R5MdEqfWaWKIwDMdwt6FRRAScJYgOIFwlkoYkqmy3SSQkqX2htlpTNUunPcaUDfhW+Hshzk1kq/jdCAUfFj2kUCZNSIaZAbFUoSomBWANiF1luYpTKZlSRkB0zaCOVJyjit4I4QSAOD1byY4VZ0rAElX1JvmwwX2yLUMSJUeGDBcKkCGV9sFM87kD8MBfsskDMSh7kEcjGRA/mwheEhCpzx54LxMmJKp4PkoLgBOVanCLJi1PZ4xaCvHCF3gJiD1lhomotnlIAN6eSH8+SFMQlKePEi3K4kXHKePDlIBqwQQhgADkcmWASyAGitu66bvhLORMGuEAKsoEAOKs0gytSB2bE8JoIisAfEAmAbGhd8MCsABRC/ZchrfLqDLIGZgsHVuSCpxDngyiQB3/LB1aJh7ylgCdQI/qHdy4cPBhvHhyK+X+vH9R+07CgJlqlkQ96ZGgOWhJDiSHECGIY0R43wgNwPzwaXoPgcMOZuM9gHt/sCU8J7YRHhOuEDsLtiaJ50h+iHA06IH+YqhaZ39cCt4Gcnngw7g/ZITOujxsBZ9wD+mHhgdCzJ9SyVXErqsL4gftvGXz3NFR2ZFcySh5GDiLb/bhSw0HDc4hFUevv66OMNXOo3uyhmR/9s7+rPh/eo360xBZhh7Cz2AnsPHYUqwMMrAmrx1qxYwo8tLueDOyuQW8JA/HkQh7RP/xxVT4VlZS5Vrt2uX5WzhUIphYoDh57kmSaVJQtLGCw4NtBwOCIeS5ODDdXNzcAFO8a5d/X2/iBdwii3/pNN/93APyb+vv7j3zTRTYBcMAbHv+Gbzo7JgDa6gCca+DJpYVKHa64EOC/hCY8aYbwXWYJ7GA+bsAL+IEgEAoiQSxIAmlgAqyyEO5zKZgCZoC5oBiUguVgDVgPNoNtYBfYCw6COnAUnABnwEVwGVwHd+Hu6QQvQQ94B/oQBCEhNISOGCJmiDXiiLghTCQACUWikQQkDclAshExIkdmIPORUmQlsh7ZilQhB5AG5ARyHmlHbiMPkS7kDfIJxVAqqouaoDboCJSJstAoNAkdj2ajk9EidAG6FC1HK9E9aC16Ar2IXkc70JdoLwYwdUwfM8ecMSbGxmKxdCwLk2KzsBKsDKvEarBG+JyvYh1YN/YRJ+J0nIE7wx0cgSfjPHwyPgtfgq/Hd+G1+Cn8Kv4Q78G/EmgEY4IjwZfAIYwhZBOmEIoJZYQdhMOE0/AsdRLeEYlEfaIt0RuexTRiDnE6cQlxI3EfsZnYTnxM7CWRSIYkR5I/KZbEJRWQiknrSHtITaQrpE7SBzV1NTM1N7UwtXQ1sdo8tTK13WrH1a6oPVPrI2uRrcm+5FgynzyNvIy8ndxIvkTuJPdRtCm2FH9KEiWHMpdSTqmhnKbco7xVV1e3UPdRj1cXqc9RL1ffr35O/aH6R6oO1YHKpo6jyqlLqTupzdTb1Lc0Gs2GFkRLpxXQltKqaCdpD2gfNOgaLhocDb7GbI0KjVqNKxqvNMma1poszQmaRZplmoc0L2l2a5G1bLTYWlytWVoVWg1aN7V6tenaI7VjtfO1l2jv1j6v/VyHpGOjE6rD11mgs03npM5jOka3pLPpPPp8+nb6aXqnLlHXVpejm6NbqrtXt023R09Hz0MvRW+qXoXeMb0OfUzfRp+jn6e/TP+g/g39T8NMhrGGCYYtHlYz7Mqw9wbDDYIMBAYlBvsMrht8MmQYhhrmGq4wrDO8b4QbORjFG00x2mR02qh7uO5wv+G84SXDDw6/Y4waOxgnGE833mbcatxrYmoSbiIxWWdy0qTbVN80yDTHdLXpcdMuM7pZgJnIbLVZk9kLhh6DxchjlDNOMXrMjc0jzOXmW83bzPssbC2SLeZZ7LO4b0mxZFpmWa62bLHssTKzGm01w6ra6o412ZppLbRea33W+r2NrU2qzUKbOpvntga2HNsi22rbe3Y0u0C7yXaVdtfsifZM+1z7jfaXHVAHTwehQ4XDJUfU0ctR5LjRsd2J4OTjJHaqdLrpTHVmORc6Vzs/dNF3iXaZ51Ln8mqE1Yj0EStGnB3x1dXTNc91u+vdkTojI0fOG9k48o2bgxvPrcLtmjvNPcx9tnu9+2sPRw+BxyaPW550z9GeCz1bPL94eXtJvWq8urytvDO8N3jfZOoy45hLmOd8CD7BPrN9jvp89PXyLfA96Punn7Nfrt9uv+ejbEcJRm0f9djfwp/rv9W/I4ARkBGwJaAj0DyQG1gZ+CjIMogftCPoGcuelcPaw3oV7BosDT4c/J7ty57Jbg7BQsJDSkLaQnVCk0PXhz4IswjLDqsO6wn3DJ8e3hxBiIiKWBFxk2PC4XGqOD2R3pEzI09FUaMSo9ZHPYp2iJZGN45GR0eOXjX6Xox1jDimLhbEcmJXxd6Ps42bHHcknhgfF18R/zRhZMKMhLOJ9MSJibsT3yUFJy1LuptslyxPbknRTBmXUpXyPjUkdWVqx5gRY2aOuZhmlCZKq08npaek70jvHRs6ds3YznGe44rH3RhvO37q+PMTjCbkTTg2UXMid+KhDEJGasbujM/cWG4ltzeTk7khs4fH5q3lveQH8VfzuwT+gpWCZ1n+WSuznmf7Z6/K7hIGCsuE3SK2aL3odU5Ezuac97mxuTtz+/NS8/blq+Vn5DeIdcS54lOTTCdNndQucZQUSzom+05eM7lHGiXdIUNk42X1Bbrwo75Vbif/Sf6wMKCwovDDlJQph6ZqTxVPbZ3mMG3xtGdFYUW/TMen86a3zDCfMXfGw5msmVtnIbMyZ7XMtpy9YHbnnPA5u+ZS5ubO/W2e67yV8/6anzq/cYHJgjkLHv8U/lN1sUaxtPjmQr+Fmxfhi0SL2ha7L163+GsJv+RCqWtpWennJbwlF34e+XP5z/1Ls5a2LfNatmk5cbl4+Y0VgSt2rdReWbTy8arRq2pXM1aXrP5rzcQ158s8yjavpayVr+0ojy6vX2e1bvm6z+uF669XBFfs22C8YfGG9xv5G69sCtpUs9lkc+nmT1tEW25tDd9aW2lTWbaNuK1w29PtKdvP/sL8pWqH0Y7SHV92ind27ErYdarKu6pqt/HuZdVotby6a8+4PZf3huytr3Gu2bpPf1/pfrBfvv/FgYwDNw5GHWw5xDxU86v1rxsO0w+X1CK102p76oR1HfVp9e0NkQ0tjX6Nh4+4HNl51PxoxTG9Y8uOU44vON7fVNTU2yxp7j6RfeJxy8SWuyfHnLx2Kv5U2+mo0+fOhJ05eZZ1tumc/7mj533PN1xgXqi76HWxttWz9fBvnr8dbvNqq73kfan+ss/lxvZR7cevBF45cTXk6plrnGsXr8dcb7+RfOPWzXE3O27xbz2/nXf79Z3CO31359wj3Cu5r3W/7IHxg8rf7X/f1+HVcexhyMPWR4mP7j7mPX75RPbkc+eCp7SnZc/MnlU9d3t+tCus6/KLsS86X0pe9nUX/6H9x4ZXdq9+/TPoz9aeMT2dr6Wv+98seWv4dudfHn+19Mb1PniX/67vfckHww+7PjI/nv2U+ulZ35TPpM/lX+y/NH6N+nqvP7+/X8KVcgc+BTA40KwsAN7sBICWBgAd9m2UscpecEAQZf86gMB/wsp+cUC8AKiB3+/x3fDr5iYA+7fD9gvya8JeNY4GQJIPQN3dh4ZKZFnubkouKuxTCA/6+9/Cno20CoAvy/v7+yr7+79sg8HC3rFZrOxBFUKEPcOWuC+Z+Zng34iyP/0uxx/vQBGBB/jx/i+u+JCu5XxHZQAAAIplWElmTU0AKgAAAAgABAEaAAUAAAABAAAAPgEbAAUAAAABAAAARgEoAAMAAAABAAIAAIdpAAQAAAABAAAATgAAAAAAAACQAAAAAQAAAJAAAAABAAOShgAHAAAAEgAAAHigAgAEAAAAAQAAAOqgAwAEAAAAAQAAAOAAAAAAQVNDSUkAAABTY3JlZW5zaG90NvDAzgAAAAlwSFlzAAAWJQAAFiUBSVIk8AAAAdZpVFh0WE1MOmNvbS5hZG9iZS54bXAAAAAAADx4OnhtcG1ldGEgeG1sbnM6eD0iYWRvYmU6bnM6bWV0YS8iIHg6eG1wdGs9IlhNUCBDb3JlIDYuMC4wIj4KICAgPHJkZjpSREYgeG1sbnM6cmRmPSJodHRwOi8vd3d3LnczLm9yZy8xOTk5LzAyLzIyLXJkZi1zeW50YXgtbnMjIj4KICAgICAgPHJkZjpEZXNjcmlwdGlvbiByZGY6YWJvdXQ9IiIKICAgICAgICAgICAgeG1sbnM6ZXhpZj0iaHR0cDovL25zLmFkb2JlLmNvbS9leGlmLzEuMC8iPgogICAgICAgICA8ZXhpZjpQaXhlbFlEaW1lbnNpb24+MjI0PC9leGlmOlBpeGVsWURpbWVuc2lvbj4KICAgICAgICAgPGV4aWY6UGl4ZWxYRGltZW5zaW9uPjIzNDwvZXhpZjpQaXhlbFhEaW1lbnNpb24+CiAgICAgICAgIDxleGlmOlVzZXJDb21tZW50PlNjcmVlbnNob3Q8L2V4aWY6VXNlckNvbW1lbnQ+CiAgICAgIDwvcmRmOkRlc2NyaXB0aW9uPgogICA8L3JkZjpSREY+CjwveDp4bXBtZXRhPgqxsmz0AAAAHGlET1QAAAACAAAAAAAAAHAAAAAoAAAAcAAAAHAAACdw3AiZJQAAJzxJREFUeAHsnUuT3caRhdHdZJMim2zxJT5GE7ZjFGPZE5ZlyxHeTPj/72btX+CFY0SJj2a/e853TiWAe0k6YhbCZV9WdV+gkJmVWSjkQRYKBWDn5PTsf4aeegv0FvikW2CnA/WTPj69cr0F3AI7f//73696W/QW6C3wabfAzqtXrzpQP+1j1GvXW2DYuVLq7dBboLfAp90CHaif9vHptest4BboQO2O0FvgGrRAB+o1OEi9ir0FOlC7D/QWuAYt0IF6DQ5Sr2JvgQ7U7gO9Ba5BC3SgXoOD1KvYW6ADtftAb4Fr0AIdqNfgIPUq9hboQO0+0FvgGrRAB+o1OEi9ir0FOlC7D/QWuAYt0IF6DQ5Sr2JvgQ7U7gO9Ba5BC3SgXoOD1KvYW6ADtftAb4Fr0AIdqNfgIPUq9hb47IF6cnIy1O/8/Lx7RG+B4caNG8OtW7fG36fQJJ8tUAHl0dGRf/1tNJ+CK356ddjZ2Rnu3LnjH+DdZPosgQpIX79+PRwfH2+y7bvta9ICt2/fHu7du+dIu6kqf5ZA1ZsXh7dv326qzbvda9gCd+/eHe7fv7+xmn92QOV69OXLl0Pv7m7M566lYbrBDx488HXrJnbgswNqj6abcLPtsLnJqPrZAfWf//zn0Ed3twM4S+8FA0pPnjxZ2qztfXZA/cc//rGRhu5Gt6MFnj9/vpEd6UDdSLN3o9e1BTpQFzpyPaIu1NBbaqYDdaED24G6UENvqZkO1IUObAfqQg29pWY6UBc6sB2oCzX0lprpQF3owHagLtTQW2qmA3WhA9uBulBDb6mZDtSFDuymgMoUNG6Y7+zuDjttX3eU4yvSbF8Nl1ruan2lr0tDDJWpjiWDDrZhXUn8SoI7KiOiSpOnnH5XaB5Eu9R6siEGomNCXwpAwv7OcCk+JVJOei/RLCLlsGP7VW6mDBWfQepAXeggbwKoAGL/9q3h8N794exMz7zuBBS6iS3HN7JE0xoUgVLTaBCABRjgtZXkdkVjk0UAWszIwCJNAFPeoMYWSfLSU/YxPdq35pwQKH8FUIXeC9ayy3pPBc4vLnziYZZX6mjFW7/oQF3oEG8CqDf3bw4PvnwwvHnzJjgEeAASgBh0LVIGP4YKTCLblUBxKaAQa5E3bltbubhVJJpK4v0kYsAcls8DKJrZRzFlTcKG8tYlu5S9ECivLi9cD4DpE8+t/eHgzt3hnR4VhP+5pA7UhY70kkAl0tB1rIePj09PDIb1XQVwdCnBTxAySZjUwGxQiwBtLmxQsQgK56yoC+oMekTWU2yIql40BaxKS9dJwf/i4tyR9Pz8QvOkz6z/9v7tYV9g3dWJ5BTwUnR+Flk3siXbHagLHcilgXp6euqHjg/0POPJySnu7G6oFgGFVsRO08UrINnpIc9gaeBYmkgXTkoip2RAs/ZW9EphYROdljeglQOUWpV9mGU/16Y6gSiqXumC+EJgPBNIT08B5ZW78gd3D4bzs7Nh78aeAJyouu1g7UCNb/3iyyWBSpfw3bt3w5d6jvHg4O5wJicHHQ48RoyQUqBhzw0cFmwIPuIJJ+CnJRiCSRGzWUyvDUaVuxICYRMkC9Rs2zjodPQUZc0+xpCjjup061pUQ1LqFQSop8PZybm3b9/5YjjUg9R0hS8F5Bt7N1oXmc7y9qYO1IWO7ZJAxYl5k8TjR4+GA73Kg+ia1MCqjRpfXUfVGP0EF2N65v6JWiBJPAOyQQOQCZVsAXInr0wZt6d4/C/sE0kFVOF0uNIJx9FU0fNUD95zArojoD569FgAvhgurnT9enGlwaU9D5apWgJ6sx+rW7PsQF3oUC4JVCIR72Z6JKDyzp3T0zM5vwaGRkA1Zw4S3QLEwRoaGn0d0F1KyHJa7LLNf2CeqIiupshqo2m1WWfaHZVbmVYMWSS4qQPiAduFAHh5qW6v6n4qoJ4cC6gC5t0v7gyPv/pquNAoNiPKV0L0hXTu7e0avOhiT7YtdaAudESXBCqRB6A6oh7eU7dRAzEGgVyYaIgry7l3BLyrqzaSY9BMyKnIVDCcmkmlCZ9OBbjoBB+A2LqbnUtHX4QpJwFMkD5g32olY6BqtJf9AKRE0xNGeRkg0zX38+fPfG3KiDAXu3SBOTnt7eqaVQNQVfcY2o5lB+pCx3FpoPLql6+efKVr1AN1C0/HGDNCUZgRJKa9B0NihtbQBGiQMGOShUtg9D1S1gILXV5w6KgtPmBx91j00SaqzIsdNDZLELwB6FAOKLk+PXFEPRmOdc3NPdS7dw6Gf//6awNVEj4pYPfS3eBcs54LwNyH3abUgbrQ0VwaqI6ojx8P9+7f86gvvVjGcgCGwVL73egGFmjZUYTVim5tAmebZQQa4BXwKGeaSYUzrwuNsElN3Yp9gB6OVjoRlH3oRMdLge38jIh6Mpwen2pw7MhAPbh3MPz6V7/KYJKEKQcoK5I7st7YVVlFVipSlcDcNU4dqAsdvCWBymASkxyePBFQNSupBpPssyCW1FbJy9mdaXQDGlocne6ytyREcCVYOchSBqWiTQogkiBKUGyfIFhDm9s3DWpsocozkpTx9SlA1T3gEw2GHQFUge++Tjy/+tVvNIikUV9Z4BqVq1vfzsGiR4sze4mInFtLYlzz1IG60AFcEqh1jcoLsQ4OdI2qqARwHH2UY0wI8BhLypNGqDYeeMocX7gB3CQHtNqdFunxbRuYa4kr1wBlmvvrcs2G7RMVVY6fa6HtC4XyK43qnukHUI9Pjofjo3ce2T24fzB88x/fuOvLSaJAWvdd0cFIMF3hPd26YeqkTyqcBa5x6kBd6OBtDKga9T3z7RkcNWCdEFqxDNSKb8evBgEETOQnbkWOEeBEUgFPGa5NXY6lcSBZCzS6V8kzAJUyCLYBrNIrihVIyQV1UMhmVtKZI6pA+u5kODrWNaquV+8f3h+++eYbiRNFVUyLgJW8btdoiy47QOUEsru352td9ob/65o6UBc6chsB6mNuzxxqqp1uzzQMkQm+8FqBqGGqEbWaHBoWqfzb6wbm4sH1SDKgQRKhxjS8MaYRJuyHKQH4RrYyzmcz15qqnyLihUDHCYZuO/N66foSHZns8J+//W27FSOLUlxTDhmIsg7qWIAXkHl66LpH1g5U/GeBtAmgPlbX91CDL8eKRLsCoK8GBZwdHHrc5xmyhBqiU0ALoJFtSCpAoaVEGsoayzqdF0jc7RWF2AlGbV+meGoHK1Oa7AM4BpHcdVVEPfGtmVN9q+fIM624H3x4eDj87ttvPbAkcSUWlAtgiaL+iUl0FuoVnS+Hm0yK0KjxdMKYanAdch2oCx2lTQCVa1QmPBCZ7NMr+4pzCzRCFuAEPs4LVawBDXDbDcy89DiQL3BVBo9HaRQkMkoeIn8NnQg2aoyDnRSENbOvPPUAVERF7oeeaOrj2ck7gfRkeMtgkrYPH9wffv+737trjA2fcqTTVllzm4buMDxOSOwH172i7Wk0mBlNrkEq4vx1WHSgLnSUlgTqOIWwur4MJhmAuDNgSsKJ2Zx6uwIOjg34cH07M8iqMinvCUpGbSlCInD31SeAsQoZJaYiu2IfPUpNtdnYhaSody5QMWJLt/dEA0nv3vFjMOl0ONRje3/4/X8NZwKkKjgCEfvqMZtWA0sGrGjUjO400XpP3WA/iUONvX9U5NNPHagLHaMlgVqjvl99pVFfphDq6ZmGCe1tIZMY2hxdwMRpDTKxkd0lwqWf2LrAAEkcyRYGa8IDcCRBj/qAFv3w6kRgfgQM3FiSVt2fta024kv0u9RAEiDl41pHukY91jdlAS4PGnz3hz941NfaVaVEf2UK7JRnJ1R/dKUrDDsRm6duLhVZPbmCOl+D1IG60EHaCFDd9dVg0hnfYy3gBYnMXcCZDTs7OJ7dEpHGUTVQMjXCJTGtWzGDGBCOZcUgD+DbmyWibWbfKJYq6faf5ImCnGj4AVIGko6JqAD1/NQPwn/33Xfp3kre5xKdCRw9qdVMl0eEZUMaRU59mEMMfe/mri4JLtJzh/eJpw7UhQ7QRoCqyetE1DMiqvBBhItP4piOnxOwcHq3hQQNm2AVeSgUrKvNFostP0kjUxwKKInp8tIxlYaxat92JUiEY4I93V8eCj/TPVR3e3Vr5t1bgHpuoH7//R/djTX40EbU9DoL56kvOsWDyYR+QKx/0bmOHTyRn+daQeun3g3uQNWxXSJtAqgMJvERXM9MAlH4rKLP+iNq9nKjSg5v5AV+0AmsoeHgQKApogtcDNECGvhNpGUt7ryAg31d4O7qQQCAW7Jj17TdB2XAx4+3aeog3V8Gko4EVK4tHz54NPzxe0VU6mIMaq1/Jkmogq6jdUNmW3+MIgNORBSrXe9LorYj6w13gy3r/Uu1PrVlB+pCR2RzQNU1KpPyiXYAS0Dlj3+SYyAODSskAQDAtohbNDHxY0dlOXyEvWUaeiBbCLkmjz1kYx+zzdaafWIikdEAEoiYlQRI3e3VQNLbd28VYc/06N7D4U/f/0m2kG/6VC72RSUiEzZdFeUjGbDC004onjq62p5oe5oUcXahyNrq5MKf2KIDdaEDsjRQmev7WHN9eQMhT6CUFwJGAOeJDTxr2m63VDPgq5FRDpAVgkdwUh6pKVl+2rT+QLjpisYmEYCFFPsFLLqpPCEDWM94BpXpg7o+PRJQ6foSZR8+fDj8+c9/VkQ1SoGrKpQ6uV6qm3EqPmBmF9hmIClRWGtOCJSkNwxsdUvIb4ogortxVOATSx2oCx2QpYHqp2eY8KCuL5PaAROpBdXktfTtGNbwcGz94abBYhy9btesANK+bChImgL60R2W64Nptk0qFjQl7I8CylpnA75HewUiAOkHxhlMAqQaUHqrwSRu2Tx8+EBA/cHRlJkXVc+alM9kjgATgCrSqhLUEkGADC1d7eQRxi78HT18zmgw9V4/GYm00dSBulDzbwKoX2kwicfcPOFB3rcCNLnjOOEAJ/Y1Jy4aOZaOLvJ0sV0WHhLRE0h/yKHNARAUUMqzqlBTHhoRDvs8v2pgUR8BBtDw9gauq48FVGYlOaJ6Ur66vnp07wdFVOpUelrG+EcvXXzP9ZVM6pd9oBBADS5Z+5SSCEsbKLLu6tYN9qnsh/YtVpdfdqAu1OZLA9WPuek+6v0DDSb5GpVoifPppwyv22TDfzg9P8IPUgiGEBSJIBfXMjx0JAEAhFs5r7VZJG0XHwlf9SoT+1qTb4AFFEyqN1DV9fVTM3r9yjsBlKh6dPTW904fP3k0/PCDIioKKYMOZZMAP9vo8lLrsoEE8oAVIWRyYoht6Or6qhz3WXkoALGZ8pjY0LIDdaGGXxqodH2fKKLS9fWor30u0SaOPaKptQDOS8c1gK5mcddxetmSnFdwpShOL0TuqvvZAlOcukIkkbgQG4M+EWTEmfKxH8xMkc3XqOricl19rNsyvNmBCQ9HdH113frw0ZPhL3/5odlHSyKzo192wSAFodYKIOvHyYZ99LbOQaq4r129A8jxLuHQdvVaFx4MYOeq+tR6U6kDdaGWXxKo9eA4XV8DlfuoBSADDNcz2rw1RUrRFVH8OFqLuBOc48jAL9F4FmxULE/dGLqSACLR7/IAA30iuxssieKjD4AYWAIF7+llMIl3JXFteiKgcn3KGx54AuaBrlH/+te/2rjBSVErYI1dZjkJYLIf8Eq/9olxM6YRUpD6UcSjvgC67FNPbVhe9HpEToWii8yGUgfqQg2/JFCnKYRPdY2qdyZ51HfaUSLK1Mut8VlcWIkF0VAOCyDppjqKwvA/QIYWfazqRo5JKsednfCjW+JOAVSjISwGJ4lEOGYjCUIC64VulfDScF5q5kfc1P094vaMXtJ2c39/+Nvf/nvY378VoEVN7Dn8S7H0Zr4vVdY2ABx/0ARo/cMzXXVOtxdRKkYdBGbR6QZzgkB6k6kDdaHW3wxQmfCgKYQCquGBE7obi9/JSUEcDmjnBDIBEbRGWuGZDo/AVehzlnIVzbQ2YKQNwIoP2i2B0mbSq2YfQCDoUV9F03MBlTfj5/aMur/MTDrSNEKtSd9++7vhN7/5tXIAMtfO7ujKjmonqn6uIwDUln6MBnt0Fy4E/RDxWjqyRj5dX0Q88MStG03kzwmESL2Z1IG6ULsvDdS8M0lAZVK+p8kFP3RO5ZX+EXUcNU0DYDSGFgmjWuHA0yyiEddI4dAuAAhxeYFkUm0LOL9tUZB/8AEFOmaafcAE+vnzPN/zK49Un+ipH97uAEC5VuWVLDxgcOPmTT2T+lu9NvSFIut+bFivFkpUIzqtOHWBAThFYtAKQLP/yFoK++L7mlV4pFsMlMEw16q3b93yiYPeCZcGS6cO1IVafGNAXRlMys6mqwpS5JgGI5FIgANAuC6IUsKZPZvJuQDArj0ijsAVWbtuQyrTBMWoAtYVfckia1MsJHulC0i0+JpREdVvd/CEBz5lwYPjASkv4T7WNhH3xu6N4ZbAc1cPxjOziNru8I5i6uaV9kffhCW5buwfvQnJ7XrWFScY8VSUp27z/VgGx8hLhcru6r7qngR4uTf5G7LDIBe8pVMH6kItviRQ54NJ3EflXUMAIQAMINvNFtEEEsKGwReXxpmTxDOiRJHc+H1UMZEAXgGcN1zEUAgeJKSYJL1+ZA4uNgAM9Aq/RCdFNqIXuqqLybxeoheTNXiKhvVZrUXnwXLXwvVSTQAnkBPKPJ/Zeeg7wx5AlJzxKZABazYMRm3D25UcI73QAD7g5IXePL/qn2h8cItbRXSFl04dqAu1+JJAnQaTvhon5RuHcl6DxUAqqIUE3aCzuysv52U7Hd/ipbFc3ItsF5jnTQmboNqU2uwYjZt9aoCN1A0b+TGlj5doc1vpXPeAPZ2QwSXleWUoD5Az2MN+csZQKSnhX3+ADlBS/5b3NgIGZaJlNgVS/QWwlAG8AqfkmPiAjhsAViCF/sUXX/ikAR0a66VSB+pCLb0ZoD7VNerBcKLo5GC2tq8NL6BRURUm0EkKDwAoV2Awy5wS05rtRENnmwpWgMA8LWeq2XKyJsCpLYMUqiqSR90ylZDeAZHV0wq1Hxd6oPxM0bSefone9LPp2vqPLq7qLbih0FMDDcniwxMojTPyLaoGqCpKVCX8mgdII3P79m11w4994iDfgcoB27K0KaAe8qZ8RSaDwqFLOYCHL4dKpkU1cEI3mMb3oiTaNl1Wx8UZPQfKUbWB1HqJ0JJSXMOcEutmeM2+6e7+xj66GOhh1JX5vWf6EUn9ClGDlEGe/Gw3VbA1wGPA0b8lQraa+hqUXQJ80Bw9WUMKrYAXWaKr6OJRhr9bt/c18YJR6GNH11wbN+O/8KpH1F+4gUv90kDN0zPcnmGub7ueA50OMkJKgZYKgiSxSMkCkpFkKq7sqIfcKpNiLQlyKocOzCTOwaJQGLk0RTnbk1EPShFdKSxe3ngPGJk0rwh6zmQIgZXRWXV5XRcLSw3qpCqffCQS6qFwAdGqABnRUVvsg5DHv+URNLDFhcgfDPg+yRig1If92R1uarSZZ2Pf6skkXhpHJF4qdaAu1NJLAnU+mDQ+OO79tOu2HG6pbUj424QqbQAYuy05y7NIaS1BheRHnjZhxrkp642xBGWT4FXuffvo8z1VrTkXIOx7mVpzPcrLyZg4b1DLPjnsUp3MKVZe+1KAY/8AKfx0IbKdGkgKupIjKXqCUNN9fRumZVgw2eJIIH2tHx/f6hF1bJrtySwJVLqFzPX10zPcR/WoL7cl5K8GJCjQhh04bZwu6oxgGIOGktNat1IIhKWipg1OioCINAlY/E0p2sv+yJuZQ4KRaHe9Ke3iWhuL4gm5mcBP3kRhT0IWRFFSQDrbEhoNZOmky+vOQBOvri71r2hMPbSpZaNp/wPonWH/1r6/6fPzzz8bqEuO/vaIWsf0F14vCdQa9X3KY25falK+RkwdUQBQc1w89uPfR50QVNekU/PAM1QNHHs1OnFw/nFydBsdApW2wVO8v9m3IIAAfIRz8qwoDA3Qokx5irIEqOSczVzeoBgDDVQqD3htX2cF41jrdFDFQwF2WGnDVTRXjGa/sUe5KgKdiPr69Zvh1asOVDfiNi6WBirfR33+7LmfR2XOLA5Hsj8ma9romPiqNgKHUEvWZe3lKRh6QIESol6eOfWlnkhNQsABcID4g/ZnOhEY7QM4COJTzmWbLCAGgH4LPhlseaWFyjlqS1HJUePoTcaakY+4a2oZL2LXats+uHBrCGZBce3/008/+Rq1d31ptC1LSwPVXd+nT6c3PMgxAxq7dpy/2rgcGyoXeTiyvDXXqW0ubfUZRbffIkNio0W75s/NgJVYxHbprUoAmVEOrsSgG1jr9t3DzcvI4AOaaKVuKVuViW40K6GP+rYEz5MuqLsVAGTktBi3c0L52P5jf18zoV6/eT38/NPPHajVuNu2XhKoNZj09CkTHnivr27P4JPy2LxjV62Lg7bU4ki27Lj4OtGMLq1EDWSjxgHGd3AAA3w8HmxTzoum1CVVRmtrEh/5IAXZkiOPREtkEEupkWcJ8ehSe45us084Fym6UdEU5fpTp4jSp/V79k2Dmn11DUq+0aQ6+6/t/Rs39TbEt8PLHlHdVFu5WBKodY36TBH1QC834/uoQA4ftB8SAfFAe2Ga2/S27egkAs4eR5czI6DENSuJpa8uZzpMb3zy2Kyur/PiuZwW6/Z9Lfwx+9LigtIZDakXACU52ia7siyb9CXm++/3ubWydZKgXtbX6sb+ru//zZu6RiWiajCJ2zO967vS3NuxsQmgPn2m51EBqiY84OJxPFwy90Rp2cSSIKThBLISHI+TKi8OzDYy5G6qtnNLBH0kC6iMklGIp8/y5gAwoqwhrjUnDyJayiJS2tbtm66iiZ5EUXTZgPRQF5Yl0Ogz+9id738sxT4lUTBpM0F1Wd3//RvtGvXnn/qorxttCxebAOozdX3f+z4qULBHCiI4d3nnGEZFNADCisuuHhBjYlxIj0BTT9kYbE2/YYAujfBkwEl6lAm+mvG5fRWup3mwCItkU7VuUbl4cMu+TwJNLeVW7c+02Oa6fWtSIdE/sv8ZTCKivhruaoJ+vz1DK29Z2gRQnz57psGke340bOX7qKPryycd4crtcW26iUQ8ADUDoJ07B6V8OVFsikQzjFiQ7mw0gVUBCugIBL/c91kBWaujbNHtXrEv3r/6PislmWDxsf3f18wkbs/0rm/aeCuXmwDqs+fP8+C47qPGf5sXtxZ219EApDuqYKJ8RT4kAdbHvo9qREjIGlkY64VmGAKlNycgY2NKTFwQaLHpk0PLV+8VqhR8zP4UPa1gZh94KrFLvlezaj/19TInjTX7HqhSUSTW9/8WQH2bUV9mJvWIqkbatrQkUBn1favRSb/cTF/oZtTXjusYA3pmSZtEyAwSEe3SlYyrIofLVplERQ/GEKpIYvuaVZmKRY60LiJ50GoDWrWomoIpax46TFy1n0GiD9u/xH5Cuguv9AWsjAU/Cb5nn/1o7FY9b2s//awsdS/dlvTO6G0SAuqbt7o90++j0nxbmZYEao36Pn/+LKO+GkzCEfFXO6QzckpvAcwMLgWkzb0BGM7Kyl1gnJttyolGxJIetnzLspSLaT1wlDdPerBLOS9n9qOVLnG6qTYrqeW/z/oB+74PNe0/k/KZ59u7vj6Q27nYBFCf6Rr1/r3p+6hyOQFCcBEomNcAiAy7Bkha3lHM24HVCLAxs3Z8pC/d14AxSilLAVbK87oXWRqvh7G7Zr+VdhHqZ6UUb2pCC3tlWWbqVDCWFUP5RPTYT53Y/8m+i7nMTOtMR9qIimgK4S09PaOIysyk3vWdtdc2ZTcF1Ht6ZxLvHSKcAR9HuFzAxfuaU8KLzwdQ5A1AnJqyWtfVHuAGWJaRXDxfQhAAh2laQNIGZW2cMmaycN+1CUTQLAs23VUefdYrgnSs2/fJxaziUECpyksxGlMaxqp9tiZecqZR3kiVXtm/0aYQ9q4vbbilaRNAfcoUQq5RuY+K/ymwjN8nVd8VZ5w8FK8UZcSP8vo3WOO77cg0RWKMt2SkBG1wSIaZlWujyrZifp+RomygOOMjSJ0s3wrN7VP31mX2jqzbd18c60qt+GpeFuf7z86RJlM5i3n/J2LtP4D1NWof9U27betyE0B99lRd38MPfB9Vfugo5/BGBJUTQ2uNn2tVrlvpMhZRa4DDCh+3cADH0rHMzMhpab02JDpdUANbhg0RK0HNmn3ork87Y6CIVLpV2tX6gH2felCunwFGnh1t9t2RwL62vf9WO9nPjsFDZs2+ZHlN6VvNTPqpz/VVa2xpWhqoPOXBfdQv1fXlFZv2Xi3t73ZgSHJSvy50avRiQXEEA6sUqrUVwJ3SnJS84ZcoK4XzTqf50Mig00PIk66yn+5sEyxZ1krmJeuldda27VHlnBDCy9K6AeFoRPQ1+57KWLpAs1EtgurKY25v3urpmZcv+xTCaqNtWy8NVJ6eoev75Zdf+p1JFS3m0YQ2xoXLOXHtQGzW+ji1UnisW5KiHYF87PDa+Sk90QpQZk3FxmhmnWIWf90+5YOVOdxKEevJVpTEfq7D53qzn5Tw/gt02CJFc61Tk6q3+dSP8Cz5WwLqK7VrPTje5/rSQluWNgHUZ7o9c6inZ5iU3+40NPekceWq8lrPCWALZ0RICbdkyVY9ZzoC3RxKA1RtODxpPUvAhbuq6Aj4IhZ3L8HYTxdVeWXocpJG+2zTVWXViiFRerz+mH31j6NN8tZBrah3Et369f2f20ftfP8py8ykV9ye6fdRWytu4WppoNL1nW7P5MFxO6rCDVHFb9eTN/Jn17cHZyuoCD0v0qek3NbhSDKWLcBYa3QUDFZI2XB0lBRl1+1bn83F5tw+w9SJ2kynkC79l32pa/lWbt3+jI+ErzqV8W64WuxLK+tVyxdPZeb7v3/zlrq+r4eXL/uEBzXNdqalgUrX95ne8HB4OH0ftfUjJ+csx1aTJzoyeQFn5ZdE1/NSYZfYCCp8X9KsAIjvo440ihGi6XsSxQKtpgmtAptQgpgR13IzAUkElkWzfYCDLP8q77pqI1FdJQh9JBR/wP7YlZWydfvFG/ffWq3N6na0L7X/PI/6+s2RBpN+7NeoaaLtWy4J1HpwnBdirX4fFUDi4PoLWpyvSOVWl2OyzRNtCHk1OxyBB7zgYsYykdm51e2FN2KsAGSLGDdnsu/SomNfqHFXfG6fk0STSW9g1b65ln/fPmBM137a/7n9hFi0K63Zh1Rg5umZV69f9Tc80CjbmpYE6jSF8IXfmZTnUatlc91or9cisTJOytLw0cIvCNM23URHMcsqj4xoTF4nsRxvZFBY0Y07G8KGUmxBnic7vhUh0eojgUbSWn/SDyDn9lFqGdcpGtmeurTa+ph9sVppr4nU7GzZN5hDMn3FviO27qP6wXHemfSyz0xK82/fciNAZQqhJzy8/33Uhik1NB4cry2nLchArZuW8KCHBkNbeLv+Uw5vJpoREUXkyRgAG0HJiIMdImuISKJF/xDQEtDaSkgrPGT9hymKtjTZT9f9Y/bdrW8mvUp/d7ThqrDwTxIWqoro9gxzfXVJ0V9uVi2/heulgcpg0nOAqvuofNICpwuu7H3eHqOmPZJQRMNrwXUg0Uv3GPNJRJxVnFaUKJcvuwlYYrXxYUc/fDxi6KEcBOX5V3YEp7Z5G76jpkus2qcLerUr2gLfZ02dYj9VnvZ/br9mJnEftc/1tUts32ITQK3bM0whrK4dLZuuagPSCEaABLAaohB0FjAyxOPNAM2II47R04SjRFkQzHYMVAGzLdJyK/aly0Wlbd2+OKJF53v2hStS2Ueq7P9/v89KOcBat2esiv2Q0rl9PziuSfkvX/bBJNpoK9OSQK3BpBcaTLqnUV9/H9U4wrvjkO1mhzbljQkjWbn1gQUJ3mwlueKEPDGnbvCIFzm5gKQTwQe/j0o9bEIg8U1eCRuUENHLCgAlz2DQL/Z9Vva/nXya4aktME8zyD4Pjr96Rde3z0xKO23hckmgToNJ3J7JpHyDxu2KUypjcAKE+Ch4za0ZACR4iIAIV512VASViMwu7kVTFZZ5LWuZnBZCMQ6gknFZFE72pdl1gbZuH46r25Sv20+9y3Kzp5WDbiv4IfvsifeHKklpdnGyz4DZfP8Z9eUa9WWfQrja2Nu0tQmgvnj+wl9zW/k+qrxxggTAUytXV9UNHlAES5MHE+yg4c1V3uJQg4IERBTmXxxKqHMqFCCynuCW/fFeKIWVwlO+IWiyaY5lssi2B6pmLLTYPt32GX1WMLWjAh/gmySea6MFOm7xhofXves7b8Oty28CqM9fvPCk/Pe/j1p3OpuHalVAssOr9VvcnPlwIk2iJJ7r/9XjZK8uEk6eMpBtyYBWjrLYLO3NPnLTEzuUeB9DRE84/NbMaRvFTa9sze3DCF8lEdOq7FuyKRsBbwtlRxIqwGASc337YBJHZkvT0kCtKYTp+p6pVZt3OnrizXI+9w3Dan6pDbmveL5N6nDHAcHl1Qlciz52fNgteTKFHLocf+r6NliBjpn9hDoVBiSIKAVc+qAiVQypUWMfUYfhiTlKUZoqIoOZuX3XFQblvB8IjkaT9f5O+z+ZiGy9iqUPJqkNtzUtCdRxMEkR9V9+H1WOafCtenV8WUsgN7/+i59r6a4sN2UEhRC9NsiImiStKjqH0IjWDjv6Xf4D9g0ydFggGmKq9OeEYI7B13RyAiq0uuwEN2ur4h+xT9moo36TfYoB1DeamdTn+uZ4bOVySaDW91Gf+xo1c31xeM81KATghvovp25x0K6ZAwBf7tmw6JCjEdxGUtHwuRebxBrqDECiBKyhfch+4fBD9t1B99v5USR7M/vBoGy2KKjMZJ8TUCkWlXrN93/kSWWJlf3UN7qys+wncnwfFaC+Hv73xx/7fVSadRvTkkCtUd8XL/ReX436nvEhY3wPByYa4ngC2Ph9VNNx+vLcWsePvWUFHBkXbuvm0JDx+KbCEymwI4LPC3DR/TH7FLQRLyRda6t0OSwkwYvWXM9qu9lat48945xqonO0r3a4mO3/mv3sqgvBcW3QkLm+GvXtQKU5tjMtDVS+j/r1v30toObbM9WFnSAQELDtZL8k1kyuOcqCbJw8HtxgJBgqvBJhDUKeohF+MkMwJf2kSpOZT0ywKRmdLGXDZmbUsm/5Zpu6Nu22jzh2c328ap8TD6eK0jOVjb3sK1Ql6VmxH6OuTRi8Mym3Z34UUPtHotJsW7dcGqjc73uha1QGkzzqi0MbVeXosyaWhwJC3JqlvVOymYyfqREGKXKREK+Vl3hTa0LklLUAEBnVCTLWvgIcC8zsjxOE1+z7IQCQJDpa5/bpHVAd01E4CpCh86Ay3v+wRjmYjV77v2KfwG2gp334PiqjvkTUzwWo/wcAAP//IbuphwAAIvdJREFU7V0JgF1Flb3d6SXpTjoLJCHpdBIhLOrAIIuKorgxC4qoKLghgg4CEmQRGMSRHVQQh0U2kRFB0HHFBcZRGFHBKAIuLIokZF86na07S+8959xb9X793//3lvT/n9dVSb9Xr+rWvVX33fNube/9ij4EGUNhzZo1RWttd3e3bN26VWbPni2TJ0+Wzq5OqYC2+6RCGFHVB9qvQI7msYa4LczyaSghfRXuChm87ukFNSIsU8HbWEki/PGkZx5I2WtnRFU+kvsYYXAnRr0sxp3wJI1cVD4Z449ye8E2V77KNeHKJku+8nVtzCPft1kLsl6sLyqiOgFP3/6aqmrZtm2bbNiwQSZNmiTjxo1zskb/NGvWrNEXkkcC7m+WVvOQpCupmEDt6emRtrY2aZzdKJMmN0hXZwcMj6bncACg9REBigLTs9qnu2bcQIEymgGT1USW1wTpRYbiM+BhnLQoGajMXj1bnCW19GDywZPyKviA0AIZ+eTn/ueRj9qR3gW22cu3Mga/SrJgvYO6W7uQ5vIy8smQiSLV1TXSurVVNm3cFIHqdJy6U0mA2jhbGhrgUTs71djM8Gl4lTBonml/BiLGArvVnF5YM01dLZqZvbjGuU/TcFZrNz5m9d7VERAsh5DQgL8Cb+jy+SjIJ7+3r9fqkfCmIK0g5AYytUF6YCIowA1lM10AAy7TmU+U+9bwOpTPdHrUtq1tsnHjRpk4caJUVVUhtTghetTi6FlKAtTZswDUKdLZ3SW0T4JMDVLtEoZI60vsGBF1IzRYJTRaXrJYEHwxJvWBMbuGFR40YSaNXXEBQIxAflCLQLqrj1aKB8jIkW9VITDZRnCpDORrfbXiOLDNygJsGAc9HzDKwLKQizQL1TU10tYKj7ppk9TX10egOr2k6lQKoM5ubJTJDZOko7MLtkojhMHCCGnASXBoZS5Nk4ZaoZ3KAICJcVsp4tls2Vm580TGwdGAi+92oqdbUL737L5UXvmsmwcUa0n5OPOPR5/Fa8Z98N1ze1YE7denB9vqufhS1n5rXNB+0oGkprpaWlvNo8Yxqtdyys6lAGrjnDnSgEmPLnR9zaizlaqghQGaF4EtMu48n5kwIQuDBSpp7ASI6ACPfHDBay3EqF5YuuaBGTwZCusfc3ODejuQSF8PDniAFJAPRgXlK18vOoQsnyQqPgPkbPloddCV5+MrlE+Qs6RJtmMtgcquLyaTYtc3W5upuSomUDnry9nJ2ZgpbMCsb1cXur4wPPMhREYQaM8wdBqmgoUGSotV4JEuQQF4mI9UrHImyQeSqGErNhSbBImVBaEK4LWVZywJpGNv08nhLHIh+UYF8EBeXyC/j7PQKO/7Aq4pYExC5Dj5FTgbbE260SGFZJoEsAbyzdszRxsjNTUAattWBWr0qKbD1B2LCVQ/6ztnDmZ9J2HWl0ClRr0Fq2XShzCVwLDJJTNSM9pKeiTS8wTgap4zYgW8c7HkwiiDpvNMOlwR794Tq7njwLMhYwTyWZp1AQvrvaoUlWEPIvLuLx9PIZXLco6AjXL1tbqyvJ/FZh19+5nr21+tHjUCVdWY1kMpgNqIMWpDA4HKWV81b8Mq7R1WybGjmr0DJHVPI00WKt21GjgzzNLBQ6lIaQaP9AQKClLN0GwCQioUriRGWRIDYIXkkzf/1KuzhBObRIxtciTglKXz1klZFkBw8vWKeWwETqF89hSyQsLD5GslkFZdWy1b4VG5jhq7vlkaS89FSYCajFG71D5hogpO83PqP2CJtFrnpVTdNORe84QKAM02J+jATjKC1Zk9r4yIoEGc6QpmX94RUj6jPCpgeZUjX0mRptD25XG27qlx8FIcW+NKtDr3TZYafPmEkHKZw0N2+10GckyGFvHlmQTeVej6bsX6dNzwQB2mNJQEqG4dlV1ftT8YWx8GeBUY4CVexOwSWndWqfZLuIEY/9VbJTS8Oc5qPTDU6P0Mr7t5jt6D1ZEoP8qvdPIVMwlvRIiiBD+I4/9A8pMlIdQpHP3qo0KZu+oy7qrN8SrL2eMkyHft1/EsvTCF58ivrq7CrC+6vhvjziQoKJ2hJEDFzqQG7kzqxqwvvR0NEIZqJ/Mu6p0AEE1zqrexqiEm6eY629WTM/yMd6IfgvE7msTA1daJdmIwVz6EKQOUyyvf0hNryCOfjAk4HnPlE2XGnmjLkU+mVnkrlyOfeeRIHknAZTU3PESPmqgklZFiA1X3+tKj6mRSN3RqRqfmx6hGYOIcPwb26LN4E7K8D8i0TI79qkmjkGdh2QobTeM1x8KeQvO9EIB3MPn06irXn3Pkk3OYZHE78gEQXie0DpjcaZVZbmKuqyXyNbhJNy+/phYbHrCHumX9+riF0DSUvmOxgconv214aMCm/C61NWpVPadHlVNzxqCdZwrUb2NDGrA3el8IYATILRX5OjNFgAZpIDWgIOKMP1c+87k0ZHT95RPtVl1Pk1++EqGfnCVf+YYp4AVBbBMDTzZD7euZkW/VxTXls/8N6lrsTGpta8UY1bYQxk351GLKQimAOgeTSVzv6+YWQhicmZtXLLuGWJNEIg2Wfx5MpCO1OjFYqhmt5ZPO+BColoYjIwkd4eKmgzRH1y/JDEHluNjQ5aOUK1hYvjLVQyg/ecCgoNXb01n7dQyMBvolGOYm7VelWbuYVqOb8jGZ1NISPapXY9rOxQYqu75cnjGgdqvX0lEnbR5WV2kWSniZaTLd9zPVUi1de8aKSCDNuSMPXJJl/Byv6E1dcGy1DFL1Egc/Hs0nn9y0fD75fgkFeYXla+kMIrWCetAyfHywbNh+rTGL8U9dLehZxBJsAoyXaFtNTa2OUVsiUFUjqTwUG6j6mptbnuFOJTNh15VTDZsBe2Wbd4QXVRQYNfNou71wuzRy/Z9kEVT0yDB1Wj4D8xC1brDluxzNdv1I0DtCLeCytDqDySfQPMcC8tlF0G54f/l8ENmML2WqQBPuj6hWpuNuidp+Fdmne33b2rZJS0sco3qVpe5cTKD6F8d917enC0D1BgzNJp5T44QbLFGNEQk28wOvgwQAiskJNhN6RtQ/IRIGhS5YuH4uspQtGJh8XLMrzX+OaQKnLPngrYIHkp9dL6uFyQ/bly2fQk2+b3C2fFz1gAfa3r/92PDAri/HqC1xeSa866mKFxOomS2ETej6TsQYlbO+maAejTYLKzZfaahxSZre29Or3WMChl6MsFTssBgi/MqCGX2y9Knl4JKSXT8oorBguUwwgNNTeZDwzBDKt/27SCsoP1PGLb1mybcHgZOVEa4xnbxywnLbb5VAjfDAYvc8lM+3Z7ZweQZd37gzKUepabksCVA5RsUWwu7uHgWaAjSZPYIxEnG0TNcVzRitWbECKMgjrcJDDwQRyxIfBASRi40U+EevqUsf6j0pwnEmLyefks3vkgf+lIsBS5kqT5YlFctbXUlJmby0+hWWz22CRt9fPmUWar/nayIzdavmpny8jxrHqLwJKQ3FBqpOJvFTLHgfVT0qDNtwZQavZg4btCse6QqpfBwILBoydhH1Ya1RDZc5RsxsLD8yFXnKw8DEdCLDTjgy05fGZZZ8ZjuvZb3t/PIJeD9FNVL5WvFc+agX5Zo3RmZO+w3IqBN3UbFRCLXY69uGnUnrsY4aPaqqJH2HkgA1mPWlRs3cAuNUlMEMkUHQEZwKMyKKgfbLKNJdjtIZ4szHeRApITcQkNL3RX15ZeHN3Wcjk/KShwGB7KQE8nXyB151IPnsKVCUPkEKyNdsHhAScLJdNq2t7cqVzxrrbi6cKb9WPSqAGieTVI+pPBQTqH4yqWlOk0zEGLXHz/oqAAyQfHdTjZtuCgPOzB5Xqp9myUAw2Yk+07wo032yy8Qp0w1m3Agorlf39tIrs4x5XgIiS74CFGAgkQYfychnCsv5HL32lcPFUOTrA4btzpUP1+oBmyvf6sT8CtEXx2PX11SU1mMxgZpMJjVhMgkf4SJwCRr1O4wokAJT16gHCgFshkkjZcdP8YqTLau44h6MuGEsroE07orZBkvLUtCqYKTmkc/nBflQZiH55OS9Z/IwYBozKNkiepVP/oDtZ3lXMpTvtn2o3BruTIpAVS2l9lAKoDY1zcVYql66ezDrGxixV3KCF/YFgR9vqsy3PBRyCCIw1C8iEtIppT0FNKpgRjGKM59Nb00vRq4ILo+RLPk+n9wRzy/fl0+IkcCKGVNNdWhlPK98pPuQJV/bzxzj3U8+0vmFBx2jxq6vV2H6zqUBKrq+8Kj0sDRABRgRR7umfRscQltHhqPTPM0iOQKp2WVl4TBdM+1ghC6BfKwMk9XwFVCUn3SCkWPMPJC913YwtnLK0csnL5Sx/06WO1EQA89gWFg+SAq0v0+/7k0mrLGrt4sRqFu2bNFZ3ziZpEpJ36HYQNVZX36KZeIkAJXwgtnSuBUxiCQX0LUatte5EmBG1KBiqYzzHVaWAznPeYJuZoAAzy7Dw3iqcJ3JIR/UiH1jBl9ALwBI5OlMcCInn3zHU8vYIZHv6k72pLIjhLDxgXxTBrID+RY1+VaW5U0+P8WyBRse4tsz1ElKQzGBmkwmNc2BRyVQ6VEZAA5aosbMQ6mRuq6vs2rNtU0OWkLprQxNHgzYldVlE4c0hxmas66hemIIc+IcD4OBZZt8D/5wQGvscNTyGQ5WGschyreX4zNwY2sMtIwNv/3+u75cnokfN3O3NG2nYgK1F9037vXlFkLr+ppH1b0G6mYcYB3AqGsCkMZrxuxTQMwlF03GATO4dMTmqYw2410NBA5+ZJAEPhzIPZSvTMFC9wWDMp98E2Y55g37yzcwU1R/+fZQsvRC8rVYHvmmi+z213AdFXptbm5WvcYv5VPvKQvFBKqf9W0iUPGam3lUogLmSm9EjOlYDNf63U0Ys+JOD8j0Zy2Caxq7D1oYF47GBnu4Bg3/I1m3/1EOEnopTJFq54x8QIFrqE4+gWRdUcpyvI2rHrWnjpjl2aMCBdw101neWGTLRxbJyTOr/dnyTaSX688oijK8YvCzvnHDg+kjlcdiA5XLCHOb5gGo9dKLri9NmiFjgrRbn4oMRBVTSmmm6WmVKqC1dMAQ6FEAKVjhtQEI2yHoKJCe0IAv+XierIu/ZtwuCNxMakLrwG5g9jwC3oPIV4CqEF/WLjKSTP5g7TegtmFnUnPs+jp9pu5UbKBq19evowKoCihYPo0/AQC1DGtVL6ieAxd+gywK2DjVtib0cnaHlkxwshitnMGSFGfKi4eEgJEEgwraJFtz3AF8CVAc8Q9lyDtHvgKYdEaRXz5lsWIF5HMAwCzNdqL1FMgv3H68j1pbq2/PrG+OY9RQfamKFxOo/SaTeh1QaaJELIM7WVx9lUY1nWSI0KzVqNWQ4S6JASRorxlnzScwdCbVFQ8R7GeIyA9kBhPy1QsrgKOXpQmaRcoc+SyNPNanNL/PCqBW1eB3Z9tkHcaocTIpuX3pihQTqH6MOhcbHuqx4aEHGx5sxGj4xNBQvahaPeIMdmKG5SkoFKDIxIUCTfMcDZIVn0QOksJg3VeCyjbUE3S58undcuXzIaDyyYweNke+JqswcGQ+yfLINx4m07xoIJ9iUVbLBWXZhEQ+0vO1n++jbmndopvyI1B5N1IYSgLUuQAqfh7QJpO84dMkvQvM8lsKDuZaoEcb/u+T0trVqfKQhaT+8kkS+M0Qt6gC1zIN6sqIvDADTTAhR6toX3vwNVYCQxvK6dLMAPL9w2Qg+bntp0flkGJd87o462tGkr5jKYDqf3uGM5e9+uUC6tUDiAYOS1ZjZjLjNFtFDwk1i2cPBcYZ9Do5oATQ498y0UywYnYF33ohX8wwcaJJPRZzVCbOBJS6ajI1+erKGPcBdVdR/hpn5a1n8sgvX8mZR+I88hWoGUZ55ftakIyBY9Qtmzfrl/Lr6uri76OaWtJ1LDZQt2/fLlOmTpUZ06djTIevNcC8aXDmpbzpUcfeWhkHcOitFCgAWQhABRdpCEAjURCghM/K5pTp9up7n/oQoKfznWDjZUiiXCtN+dwFhZqqfFZHc72QQL7LQX2s9Ejke89qtbH2h/KTBxDk19fVy6pVq4S6nTBhgsTPhbp7mKZTKYBKg9pvv/1k/PjxL3lVKghx0OUeQhfgTLDLTAQ74YgMfc1U14pYKMhTSl+SZ+TpXkZ2q80D26OEfNhTYDe7UsZVjZPNmzbLkheX6HAielRVXfoOpQAqf8K+o6ND5mCZZiK8gRqiN3LYqJ+9VXOFUcI0zTuxj6ru0jyMQ4B2XQkPelQ6Pe+N7EsN9IHOF9HGtbtJI0cAO/NMNrWjsKE8uFpOGFE+WWbJZ+UqVQg5uEDP2V8+C7LKuoIESgUx+ZvL10ytM720l5bIJ2vWIFs+N+dXOPlcmmpv3yHr1q3FVx7Gy1T0VDj2r2R+kcIs/NZtKQJ6K16LpRBffJnFBCpV297eLpsxniJYd+zYkfyYMVvOfJtRtbNP4zk33ef5dE8TpufGw+tCsjw/nj09z7npPs+ne5owPTceXu8K+ZTNzQ7smUyZMkWByrivO+WNdohAHW0NO/7FBirXUglQzlLyr7OzM9icnwFEoeaHwMhH4wHAvIFofZ4/e1651z7dnwfLL6Z8jkUJVO6bnoxfcPfjU9axWCECtUiaLiZQ2SQaMpdl6FnZ/eVPL3KzPtMZQiD4uD8rgaNh3IOCRdU2cdZOKC50GsdYZnmYTBmX6Zm6cyjLx/3Zk/KaIcOrNPLZxeWnQjnrS09K4Pq6+bqO9jkCdbQ17PgXG6gUSwPnHwFLkPrAtDCERpcBRX+asJwHVW5Z8vV5+eJMC/l4Gp4ZylE+2+PBSdCGbbZaj/4xAnX0dawSSgFU37RcYPj0eB6eBkoBUF/DCFSviVE+lxKoo9y0yL4IGohALYKSKSICtUiKTqmYCNQi3dgI1CIpOqViIlCLdGP5VQAumcQQNTBcDfCTL9OxFbQUYcxteOAXF7Zt21YKXUeZL3ENcBdUA37sqxRhzAGVa5ncJRRnYEthbi9dmZxp5pbFWqzhliKMOaBSydGrlsLUXtoyS+lNqbkxCVSOUbmdj7uFYogaGEwD3AXFL0kU87OkuXUak0ClEghWvn7Gv9gNzjWLeE0NsLvL1+iK/SpdPu2PWaB6ZXDM6v/ibLDXytg+03NyLOr/ykEbYx6o5XATYh2iBgbTQATqYBqK+VEDZaCBCNQyuAmxClEDg2kgAnUwDcX8qIEy0MCYASpndr/7qy3yvV+3ygurOmR7R/Z7nmVwL2IVylADdbUVsqCxVo59Q4O8942TS/IOLNUyJoC6fnO3nH/7GvndX3eUoSnEKr1UNPCa/SbIF0+ZJdOnVBW9yqkHKj3pydesjCAtummlUyDBeud5c4ruWVMP1O88slkuvqs5nVYTW1USDVx64gx53xFTiio79UB9/xXL5c9L4lbBolpVyoUdsOd4+dZn5xa1lakH6iGn/T1OHBXVpNIvjBNMf7hl76I2NPVAfcXJzxdVoVHY2NDAs3fuU9SGRqAG6p47o1r2m1sr1eMq5LnlHbJkTadMqKmQo14zCT/wJPLg79uko8uWdaqrKuQf97LfknnmxXbZ0RmXewJVpj4agbqLb/FQPGpDXaV87dNz5JXzMz/idPfPN8nV962X84+fLh/956laq5vv3yA34Y/h8H+ok9vPmaPx825bIz/9XZvG42FsaCACdRff56EA9dpTZ8lRr56USO7Gb5je8IMWueOBTXLDJ2fJ2w62vPsfa5UL71irdGkBKpcbDtm3TtjmOx/cKF09iRpiZAANRKAOoJyRZA0FqA9f+zLZY1q1dHX3yae+sloefXpbYrAH7T1ezjvOPmh15Teb5emlHVqNtAA1XGo44pzFsn5zROpQ7CwCdShaGgbNYEDlGPSJW20Gb9Fz23VzxFDYR6AORUvppYlA3cX3diCgcj1sSv04ufXsRpX6G3jSW35kY9AXVnVK245eGQ8gvxwTTAxPY9LIdw0LAbVufIXsO8fo/7S4Hb+VUiEHLRivk1RrN3bLE3/fIS1bMl7rVcjbG3tJ+ROf5P/XFR3ohqq4IR1y5XFK6+C9J8hes2ukCrJXtnTJome3J5NgnunuDeOkCZNnC9+9u7z25XWafM4tq2Xdpm7Zsq1XJ9I8bXieOKES9a3RpGeX4aV7N7nmadgeBrZxxfoun6znxt2rZAa237Vj4o2TdQysJ+cImrHNc1VLt+yGeh2yzwSZOa1KVjZ3yTOQwTrlhpGU82XIiz0j9qDCMHNqlczezbYHPr+yU7a1Z34nKKRjPAI1VyM7eV0IqKEnzSfii99eL1//2SZ5O2Z8r/mE/XjtKdetlN88vV3JCwH1fUdMlktPnKk0X/rOejn9nbvJhNrMD+1u7+iVy76xTv4IEJPv/i/LTGCx0LpNXfKRz6/sZ+TKMM8hlHfJXevk+DdPxoMlm+fGVux1/upaeewZqzvZXPyRGXL8m/LvrlkJgP3TBS/mkSbyfvD/3AnWvoU3rZaHntya0C0AgH90+Xy9fuqFHfKhq1YkeYzcfk4jJuHqFSAHY32bD6RHrttT986yN7N2Y5e86/WTs8p0Akx8eN72k41Z6SMpd99FTZipn6B8bvnxBrnxB/ZQZkL1OJHvXzoPDw57yJ5xwyp5+I+FPysbgZp1O3b+ohBQa6sr5MlbFxTcs3nFPc1y78ObdwqohWrPJ3nr9h54j/ybu1fBCx55fn6g5PIMgZqbF15T3vGXLZdl8FIMF35gupxwpM1mh3SMc1nqHRctzU3W632bauUHMGiGb2Bm/POYGfeBs+OcJWfowa+Dv27hYu2V8HocnlWLblog9eMrJQSxBxxpBgq5wBlJOfaMuKOIS2u8B8deugxvUnWq2NPeOU0Wvmt3jf/yj1vl9BtWD1Sd6FEH1M4IMgsBlay4w2RS3Tj5vy/tqZy//+stuiTDC3o+/iriznhU8uFe4689uEm7oRefMEMO3c+6mczjWz0X3bkW3bB2edUCezODhszw9s+8KC+uze46akbOIReo9IbXf79Fnnh+h+wDUJ3y9mlyELrCDItXd8gx/7FMgCEFzviaSnjHGXL0YfZRacpsxmQSjZierFDwIHl2Wbu899LlCdkd5zbK615Zn1yfdfNq+d8/mMdlz+Hb/2Hb7jijfuuPzUN6XixEnV+K3saj6LXUQQ8XvH+6vPVVE5Uf23PC5zMeeqTlPvGOafKp9xgg/7R4h3wQXn/ezGr5IR4+NdWVsqmtBzpaKi2tA48/okdNbvOuiQwEVEogMB6/eYEKu/ehzXIFZnbDsDNA5Zj3lOtWJewm11fKo9fvhfGo/TDwcZctS2aRSURQnXWsGdFQ12ZDoLZ39soHrlwhf8M414cpEyvle5fMk1mY1WY4+rNLAVjzIrweyazvVR+bqV3UXiD+MOc1OZZfdONeauzky8D3fz/39XUaPwne9jznbY+/fLn8BeNxhhBwp12/Sh75U6a7yQfpL67ZU6ZMHKcAev2nFmuZnSlH1d9zYZMciAcjw1X3NsuRB01MHqDhw0UJChwiUAsoZqTJpQQqjZTGGoYHrp4v82fWqDc94pwlYZa8Yf86ue1s20RxMcab33kku2wWsbsIgZrvQUOy4980GWNSG1fyvdyfLMpszhgJUP8Va85fwtozgwfXG/evTyblfv5EmxyJtWeOOd/y6ReV7uYzZ8ubDpyogDv8rMXaW2GGB+o2TNy9+owXknQthMOtZzXKGw8wL73/x5/XHWI7U45luQON49G6YO6A6T/+batcgLH8UEIE6lC0NAyaUgL1hKtX6CxvWN37L5+ns7y53UbScM32ngutezgSoOZ7MJDvgdjqeO9Fxve//mejXPPfLUzWMBKghj2DO8HvWvD7zAeny4ffNlW/nsEdXdzpxfBOenCMeeltOcz46aJWOe/2DBg8UJ/EbPiHoa/ccOXJM+Xdh9sE0wH/9nwyIz7Scp7/cZj0u8RN+jGNDxUOCzjTP5QQgToULQ2DppRA/fDVy+XJv2e/YjeaQD0dXcdfBl1Hr6am6dXysy+8TC9zgTISoJLRtz7bJAfsOUG7sOzKPnAVegp71AiBe/33WuSxG23i6Avfapbf48sa7H4zcGcXd3j54AH3WywhfezalT45OV9+0kx8BqUwUIdbzjPmZOJTt2XegHkA+7g/fesanz3oOQJ1UBUNj2AsAfXq+5rl7p9v7qegw15Rl3i4cL8yCUcK1DOO2U1Oxx9nd4+9ZJn88LL5KvejX1yhwLxx4WydCHrsmW3yyJ+3YZZ5hv4iwRFnL8maqCkVUC/AePlEt4ebFed4+0Pw6Fz7HkqIQB2KloZBM5aAyrd7zs3jFU49epqciY0NDAtvXCUPPZWZsAmB+rbzlsjqDf03F+RTN98cus91px9+aqu8BbOzHGceduYL2j31Y+eOrl75w992yOuxfvrc8naAOjNLTL6lAOoh+06Qu863z6mwzvXYxMGwdF2nvOfiZbohQxMGOESgDqCckWSlBaivnF+rYHj8r9tl0XOZj7R5QHjdnI0lkZ+5JRGmcd2TC/1cimHIBeMl2PhwnNv4cC52Jj34uC2nKDEOnHnl8g1nddll3bzVxnCcPX30hr1kMnZ2+fALTCKd+RXrPu6BXT4Pu2Uvn//Vn26UL6NbHIZiA5U7ue6H92/cvVp7A8dhbZnrv36J6p5fbMJMcGZtOKxrGI9ADbWxC+JpAOrUSVjrxYsDXOdjeNfnlgq3uDHkApVrkfc/2irLmztl2qQqOeZ1DTIDoGHIt5AfLvSzDGeaH4cH9J+vCbuIIRDJ77rTZsm/HJp56yh3MuuHl82Tfdx2StKf+IUVyptxH4oN1Ms+OlM/+0n5fmJtGvT7kyvn6zIQP4Z3Ej6Gx3H1QCECdSDtjCAvDUANZ22pgnCNNQQqjYy/QJYvcLcRJ31y96+S9zc/05RVLtxC+FVs+2O3lYFdw6MuXKpxHt5zeINccfIeyfWbz12StS/3nPfuLh8/aprmh93ipAAixQQql3m43MPA3V+ckfYv/PO7vZefZG1h3jF4GG5vL7zpIwJV1bjrDoMBNVyov+OBjXLdd7O7Zm85sF5uOtNubrjcwo3vd2PhnCHc3vaO107Sb78ynZMsfvM5rxn8bGnuThvmcYubnx0N1zuJvbsumKP7grlxPQRcCNRPYn/qG7CeyVlSbpPzgRsvuCVyuds+6NP9mUZ66tG76YZ0bpjfgF05fq/vW7EZ4GpscKjAv//EjqdvYlOID9xg/0vs1WXgJot3Y3wXBo4Fv3GB6eghjGMX3th/W96DWFeeh3VljnPPyJPvl324mePQ019I1lFHUu7uf2+Sg7Hhn+HUL6+SX/0lM1ZnGnV8KN7NZcjtHWhicIhADZSxK6KDAXVXyCgWDz5UCKQwhED1y0HcYD4PSyX8pAy9Q+v2oa0NEtxV6F13gzx8s4T8GPybQ3Y1to8RqLv4/qcJqPlUkw+o+ehi2q7VQATqrtWnpP1zoRGou9hghsAufi50CEoaLknaP8AdgTpci9h5+vgB7p3XYT8Oaf9JC74Av7dbAuEXIvgKWwyjq4Fwk8joSspwT/13feOPRGVudoztvAbij0TtvA4Lcog/u1hQNTFjGBqIP7s4DGWNlJSeNf6Q8Ui1N3bLceIo/pDx2L3/seVRA8PSQOrHqMPSRiSOGihTDUSglumNidWKGgg1EIEaaiPGowbKVAMRqGV6Y2K1ogZCDUSghtqI8aiBMtVABGqZ3phYraiBUAMRqKE2YjxqoEw1EIFapjcmVitqINRABGqojRiPGihTDUSglumNidWKGgg1EIEaaiPGowbKVAMRqGV6Y2K1ogZCDUSghtqI8aiBMtVABGqZ3phYraiBUAMRqKE2YjxqoEw1EIFapjcmVitqINRABGqojRiPGihTDUSglumNidWKGgg1EIEaaiPGowbKVAP/D9OYsXR+PqIfAAAAAElFTkSuQmCC;" vertex="1" parent="1">
          <mxGeometry x="480" y="580" width="67.9" height="65" as="geometry" />
        </mxCell>
        <mxCell id="aggRE9AeoPP2x4ic-RaH-21" style="edgeStyle=orthogonalEdgeStyle;rounded=0;orthogonalLoop=1;jettySize=auto;html=1;entryX=0;entryY=0.5;entryDx=0;entryDy=0;" edge="1" parent="1" source="aggRE9AeoPP2x4ic-RaH-20" target="aggRE9AeoPP2x4ic-RaH-19">
          <mxGeometry relative="1" as="geometry" />
        </mxCell>
        <mxCell id="aggRE9AeoPP2x4ic-RaH-20" value="" style="shape=image;verticalLabelPosition=bottom;labelBackgroundColor=default;verticalAlign=top;aspect=fixed;imageAspect=0;image=data:image/png,iVBORw0KGgoAAAANSUhEUgAAAaIAAADqCAYAAADgd0HaAAAMbWlDQ1BJQ0MgUHJvZmlsZQAASImVVwdYU8kWnluSkJDQAghICb0jUgNICaEFkF4EGyEJJJQYE4KKvSwquHYRxYquiii2lWYBsSuLYu+LBRVlXdTFhsqbkICu+8r3zvfNvX/OnPlPuTO59wCg+YErkeShWgDkiwukCeHBjDFp6QzSU0AApoAKUEDj8mQSVlxcNIAyeP+7vLsBEMX9qrOC65/z/1V0+AIZDwBkHMSZfBkvH+JmAPANPIm0AACiQm85pUCiwHMg1pXCACFercDZSrxLgTOV+OiATVICG+LLAKhRuVxpNgAa96CeUcjLhjwanyF2FfNFYgA0nSAO4Am5fIgVsTvl509S4HKI7aC9BGIYD2BmfseZ/Tf+zCF+Ljd7CCvzGhC1EJFMksed9n+W5n9Lfp580IcNHFShNCJBkT+s4a3cSVEKTIW4W5wZE6uoNcQfRHxl3QFAKUJ5RLLSHjXmydiwfkAfYlc+NyQKYmOIw8R5MdEqfWaWKIwDMdwt6FRRAScJYgOIFwlkoYkqmy3SSQkqX2htlpTNUunPcaUDfhW+Hshzk1kq/jdCAUfFj2kUCZNSIaZAbFUoSomBWANiF1luYpTKZlSRkB0zaCOVJyjit4I4QSAOD1byY4VZ0rAElX1JvmwwX2yLUMSJUeGDBcKkCGV9sFM87kD8MBfsskDMSh7kEcjGRA/mwheEhCpzx54LxMmJKp4PkoLgBOVanCLJi1PZ4xaCvHCF3gJiD1lhomotnlIAN6eSH8+SFMQlKePEi3K4kXHKePDlIBqwQQhgADkcmWASyAGitu66bvhLORMGuEAKsoEAOKs0gytSB2bE8JoIisAfEAmAbGhd8MCsABRC/ZchrfLqDLIGZgsHVuSCpxDngyiQB3/LB1aJh7ylgCdQI/qHdy4cPBhvHhyK+X+vH9R+07CgJlqlkQ96ZGgOWhJDiSHECGIY0R43wgNwPzwaXoPgcMOZuM9gHt/sCU8J7YRHhOuEDsLtiaJ50h+iHA06IH+YqhaZ39cCt4Gcnngw7g/ZITOujxsBZ9wD+mHhgdCzJ9SyVXErqsL4gftvGXz3NFR2ZFcySh5GDiLb/bhSw0HDc4hFUevv66OMNXOo3uyhmR/9s7+rPh/eo360xBZhh7Cz2AnsPHYUqwMMrAmrx1qxYwo8tLueDOyuQW8JA/HkQh7RP/xxVT4VlZS5Vrt2uX5WzhUIphYoDh57kmSaVJQtLGCw4NtBwOCIeS5ODDdXNzcAFO8a5d/X2/iBdwii3/pNN/93APyb+vv7j3zTRTYBcMAbHv+Gbzo7JgDa6gCca+DJpYVKHa64EOC/hCY8aYbwXWYJ7GA+bsAL+IEgEAoiQSxIAmlgAqyyEO5zKZgCZoC5oBiUguVgDVgPNoNtYBfYCw6COnAUnABnwEVwGVwHd+Hu6QQvQQ94B/oQBCEhNISOGCJmiDXiiLghTCQACUWikQQkDclAshExIkdmIPORUmQlsh7ZilQhB5AG5ARyHmlHbiMPkS7kDfIJxVAqqouaoDboCJSJstAoNAkdj2ajk9EidAG6FC1HK9E9aC16Ar2IXkc70JdoLwYwdUwfM8ecMSbGxmKxdCwLk2KzsBKsDKvEarBG+JyvYh1YN/YRJ+J0nIE7wx0cgSfjPHwyPgtfgq/Hd+G1+Cn8Kv4Q78G/EmgEY4IjwZfAIYwhZBOmEIoJZYQdhMOE0/AsdRLeEYlEfaIt0RuexTRiDnE6cQlxI3EfsZnYTnxM7CWRSIYkR5I/KZbEJRWQiknrSHtITaQrpE7SBzV1NTM1N7UwtXQ1sdo8tTK13WrH1a6oPVPrI2uRrcm+5FgynzyNvIy8ndxIvkTuJPdRtCm2FH9KEiWHMpdSTqmhnKbco7xVV1e3UPdRj1cXqc9RL1ffr35O/aH6R6oO1YHKpo6jyqlLqTupzdTb1Lc0Gs2GFkRLpxXQltKqaCdpD2gfNOgaLhocDb7GbI0KjVqNKxqvNMma1poszQmaRZplmoc0L2l2a5G1bLTYWlytWVoVWg1aN7V6tenaI7VjtfO1l2jv1j6v/VyHpGOjE6rD11mgs03npM5jOka3pLPpPPp8+nb6aXqnLlHXVpejm6NbqrtXt023R09Hz0MvRW+qXoXeMb0OfUzfRp+jn6e/TP+g/g39T8NMhrGGCYYtHlYz7Mqw9wbDDYIMBAYlBvsMrht8MmQYhhrmGq4wrDO8b4QbORjFG00x2mR02qh7uO5wv+G84SXDDw6/Y4waOxgnGE833mbcatxrYmoSbiIxWWdy0qTbVN80yDTHdLXpcdMuM7pZgJnIbLVZk9kLhh6DxchjlDNOMXrMjc0jzOXmW83bzPssbC2SLeZZ7LO4b0mxZFpmWa62bLHssTKzGm01w6ra6o412ZppLbRea33W+r2NrU2qzUKbOpvntga2HNsi22rbe3Y0u0C7yXaVdtfsifZM+1z7jfaXHVAHTwehQ4XDJUfU0ctR5LjRsd2J4OTjJHaqdLrpTHVmORc6Vzs/dNF3iXaZ51Ln8mqE1Yj0EStGnB3x1dXTNc91u+vdkTojI0fOG9k48o2bgxvPrcLtmjvNPcx9tnu9+2sPRw+BxyaPW550z9GeCz1bPL94eXtJvWq8urytvDO8N3jfZOoy45hLmOd8CD7BPrN9jvp89PXyLfA96Punn7Nfrt9uv+ejbEcJRm0f9djfwp/rv9W/I4ARkBGwJaAj0DyQG1gZ+CjIMogftCPoGcuelcPaw3oV7BosDT4c/J7ty57Jbg7BQsJDSkLaQnVCk0PXhz4IswjLDqsO6wn3DJ8e3hxBiIiKWBFxk2PC4XGqOD2R3pEzI09FUaMSo9ZHPYp2iJZGN45GR0eOXjX6Xox1jDimLhbEcmJXxd6Ps42bHHcknhgfF18R/zRhZMKMhLOJ9MSJibsT3yUFJy1LuptslyxPbknRTBmXUpXyPjUkdWVqx5gRY2aOuZhmlCZKq08npaek70jvHRs6ds3YznGe44rH3RhvO37q+PMTjCbkTTg2UXMid+KhDEJGasbujM/cWG4ltzeTk7khs4fH5q3lveQH8VfzuwT+gpWCZ1n+WSuznmf7Z6/K7hIGCsuE3SK2aL3odU5Ezuac97mxuTtz+/NS8/blq+Vn5DeIdcS54lOTTCdNndQucZQUSzom+05eM7lHGiXdIUNk42X1Bbrwo75Vbif/Sf6wMKCwovDDlJQph6ZqTxVPbZ3mMG3xtGdFYUW/TMen86a3zDCfMXfGw5msmVtnIbMyZ7XMtpy9YHbnnPA5u+ZS5ubO/W2e67yV8/6anzq/cYHJgjkLHv8U/lN1sUaxtPjmQr+Fmxfhi0SL2ha7L163+GsJv+RCqWtpWennJbwlF34e+XP5z/1Ls5a2LfNatmk5cbl4+Y0VgSt2rdReWbTy8arRq2pXM1aXrP5rzcQ158s8yjavpayVr+0ojy6vX2e1bvm6z+uF669XBFfs22C8YfGG9xv5G69sCtpUs9lkc+nmT1tEW25tDd9aW2lTWbaNuK1w29PtKdvP/sL8pWqH0Y7SHV92ind27ErYdarKu6pqt/HuZdVotby6a8+4PZf3huytr3Gu2bpPf1/pfrBfvv/FgYwDNw5GHWw5xDxU86v1rxsO0w+X1CK102p76oR1HfVp9e0NkQ0tjX6Nh4+4HNl51PxoxTG9Y8uOU44vON7fVNTU2yxp7j6RfeJxy8SWuyfHnLx2Kv5U2+mo0+fOhJ05eZZ1tumc/7mj533PN1xgXqi76HWxttWz9fBvnr8dbvNqq73kfan+ss/lxvZR7cevBF45cTXk6plrnGsXr8dcb7+RfOPWzXE3O27xbz2/nXf79Z3CO31359wj3Cu5r3W/7IHxg8rf7X/f1+HVcexhyMPWR4mP7j7mPX75RPbkc+eCp7SnZc/MnlU9d3t+tCus6/KLsS86X0pe9nUX/6H9x4ZXdq9+/TPoz9aeMT2dr6Wv+98seWv4dudfHn+19Mb1PniX/67vfckHww+7PjI/nv2U+ulZ35TPpM/lX+y/NH6N+nqvP7+/X8KVcgc+BTA40KwsAN7sBICWBgAd9m2UscpecEAQZf86gMB/wsp+cUC8AKiB3+/x3fDr5iYA+7fD9gvya8JeNY4GQJIPQN3dh4ZKZFnubkouKuxTCA/6+9/Cno20CoAvy/v7+yr7+79sg8HC3rFZrOxBFUKEPcOWuC+Z+Zng34iyP/0uxx/vQBGBB/jx/i+u+JCu5XxHZQAAAIplWElmTU0AKgAAAAgABAEaAAUAAAABAAAAPgEbAAUAAAABAAAARgEoAAMAAAABAAIAAIdpAAQAAAABAAAATgAAAAAAAACQAAAAAQAAAJAAAAABAAOShgAHAAAAEgAAAHigAgAEAAAAAQAAAaKgAwAEAAAAAQAAAOoAAAAAQVNDSUkAAABTY3JlZW5zaG90YHIy/AAAAAlwSFlzAAAWJQAAFiUBSVIk8AAAAdZpVFh0WE1MOmNvbS5hZG9iZS54bXAAAAAAADx4OnhtcG1ldGEgeG1sbnM6eD0iYWRvYmU6bnM6bWV0YS8iIHg6eG1wdGs9IlhNUCBDb3JlIDYuMC4wIj4KICAgPHJkZjpSREYgeG1sbnM6cmRmPSJodHRwOi8vd3d3LnczLm9yZy8xOTk5LzAyLzIyLXJkZi1zeW50YXgtbnMjIj4KICAgICAgPHJkZjpEZXNjcmlwdGlvbiByZGY6YWJvdXQ9IiIKICAgICAgICAgICAgeG1sbnM6ZXhpZj0iaHR0cDovL25zLmFkb2JlLmNvbS9leGlmLzEuMC8iPgogICAgICAgICA8ZXhpZjpQaXhlbFlEaW1lbnNpb24+MjM0PC9leGlmOlBpeGVsWURpbWVuc2lvbj4KICAgICAgICAgPGV4aWY6UGl4ZWxYRGltZW5zaW9uPjQxODwvZXhpZjpQaXhlbFhEaW1lbnNpb24+CiAgICAgICAgIDxleGlmOlVzZXJDb21tZW50PlNjcmVlbnNob3Q8L2V4aWY6VXNlckNvbW1lbnQ+CiAgICAgIDwvcmRmOkRlc2NyaXB0aW9uPgogICA8L3JkZjpSREY+CjwveDp4bXBtZXRhPgp4BHqwAAAAHGlET1QAAAACAAAAAAAAAHUAAAAoAAAAdQAAAHUAAE3fc6qCwgAAQABJREFUeAHsncuSHMlWrlOlKpVa975K6n3OoWFz2c2+dfdusGN2YAJDHoApjwHGiAlmPAAYY6YYxhMxZoDtvkgqSXXV+b9/rRXhGZWl7payszIr3aWK8HBfvpaHx//HcvfwiLz2SmHWw1q1wN/93d/N/vM//3P2F3/xF7N/+Zd/mavbb37zm9nBwcHsb//2b2d/8zd/M5fXD3oL9BboLbCJLXCtO6L1u2zdEa3fNek16i3QW+DHa4HuiH68tn1jzd0RvXHT9YK9BXoLbGALdEe0hhetO6I1vCi9Sr0Fegv8aC3QHdGP1rRvrvh1jujLL7+cPXv2bPbXf/3Xs3/4h394cyO9ZG+B3gK9BdakBbojWpML0VbjdY7or/7qr2b/9V//NXv48OHsn/7pn2YsXtjb22uL93hvgd4CvQU2qgW6I1rDy/U6R/SP//iPs3/7t3+bq/V//Md/zH7+85/PpfWD3gK9BXoLbEoLdEe0hlfq7//+72c4l7/8y7+c/fM///NcDZmW+9d//Vcv7/7tb3/rvH//93+f/fKXv5yT6we9BXoL9BbYlBbojmhTrtSknmdnZ36fiOS7d+9Ocvthb4HeAr0FNqcFuiPanGvVa9pboLdAb4Er2QLdEV3Jy9pPqrdAb4HeApvTAt0Rbc616jXtLdBboLfAlWyB7oiu5GXtJ9VboLdAb4HNaYHuiDbnWvWa9hboLdBb4Eq2QHdEV/Ky9pPqLdBboLfA5rRAd0Sbc616TXsL9BboLXAlW6A7oit5WftJ9RboLdBbYHNaoDuizblWvaa9BXoL9Ba4ki3QHdGVvKz9pHoL9BboLbA5LdAd0eZcq17T3gK9BXoLXMkW6I7oSl7WflK9BXoL9BbYnBbojmhzrlWvaW+B3gK9Ba5kC3RHdCUvaz+p3gK9BXoLbE4LdEe0Odeq17S3QG+B3gJXsgW6I7qSl7WfVG+B3gK9BTanBboj2pxr1WvaW6C3QG+BK9kCa++IDg8PZ/V3cnJyJS9CP6kf1gK7u7uz/f394e+Hle7Sr2uB4hr7zrfXtdT25K2Cb2vriCDB8+fP/ffq1avtuer9TL93C1y7dm1269Yt/0GWHt68BTrf3rzttqXkj8m3tXREkOLp06ezly9fbss17uf5Fi1w8+bN2d27d2fdGb1ZI3a+vVm7bWupH4Nva+mInjx5Mjs4ONjW69zP+w1a4Pbt27N79+69QclepPOtY+CHtsCy+bZ2joi56a+//nrWp+N+KDS2W55pg3fffdfPjba7JX7Y2Xe+/bD26tLRAsvm29o5ot4761B/0xZYdi/tTeuxSeU63zbpaq1XXZfJt7VzRP/zP//TV+usF942pjY8I/rwww83pr7rUNHOt3W4CptZh2Xybe0c0X//939v5lXptV6LFnj8+PFa1GNTKtH5tilXaj3ruSy+dUe0nte31+oNW2BZxHhD8xtXrDuijbtka1XhZfGtO6K1uqy9Mm/bAssixtvWY1PKd0e0KVdqPeu5LL51R7Se17fX6g1bYFnEeEPzG1esO6KNu2RrVeFl8a07orW6rL0yb9sCyyLG29ZjU8p3R7QpV2o967ksvnVHtJ7Xt9fqDVtgWcR4Q/MbV6w7oo27ZGtV4WXxrTuitbqsvTJv2wLLIsbb1mNTyndHtClXaj3ruSy+dUe0nte31+oNW2BZxHhD8xtXrDuijbtka1XhZfGtO6K8rDs7O7Pr16/PdvSpmGuK6xtDM775zYe/d65pT1z/lOsSzs2PgquI5cjxh8IdsZhLzSzAsQpEceubnXF8LcrapI6dlApdQharjJTzaQ0KnFmdaoFBkqSLOHuOLYfMloVlEWNbmu2yHBH43NMLyDvinBBrjBvLyYkgBVC/NvLvFagXUYI9wyWCEmcqBzfNy8wJripFArrRjaUk7wNz5/vxz9zCvuoD+yj6SsehAoXbGZbFt+6IhB9I4S/K3rk7Oz49TpzjAAQ5I65ABth3BL68+bNfECgHgZADotAnoBpEuaY88wnncS3AbTWAe8A0BMR+a+CVioV95F6diQgSOIMY7HXMH3709PSVHStfVnZ9WzVXOL4sYlzhJpo7tctwRPBtX19Mv6cvpp+cHAufWSXjnw3Hxb/iDsniU/LKPIFfeKEmmHPFP8nvSE/xDzulw/wjQbID6ZooVuf457LSlDw7VdlXp8G3a+qpwju+NHB8zPlIeEvCsvjWHZEAs7e35w9mPjt41noNOw+7EkCnfxWI4VLoxl07A+hA3YkmEWVwRg7anQdmaCA/MIuQDujsFWsUhWLW5T0CEVzadVK+iHFyJmeTBDk5OTU59/dvzG7dvjV78fyF7Z+vQ2m7WvtlEeNqtcrFZ3MZjujGjb3Zgwfvzp49e5b4Po9/OxRVe4p/89BU0Ab+4Zj0z8Gds6BSy79MCZmBy+HAQv95+wiP/JMFiai7J56dzU719+rs1M7n9ERxcf3m/s0Z3157br4pLYgdNq/wdll822pHBFj4u/mOQHTrtn8JNscsgk6CGzjiVOQgnEJXbEfwjSRcjvMBaEGXPf+KIIFJSkeap/osHmngtIB7sX3sIBj2YAajNXSfvTqdnWrkc6Ie2ol6ZIjtixj8iikHOCdqXzZ0cGXDsohxZRtocmKrdESFv3c0GnpHP2h4eMjvjYFn7aCCwoB/sO1E8gF5yWkv/nlkYvnMhwilyMMlIx6VTRi0u+NmvRfZrwqlTqvXRv09OSA5odPT2TGcg1s4ohv7sz3xDW6fKo3a1Pk2Fbhy0WXxbesd0dHRkX7H5q5+5fPO7OjoMMBvIDfABlSGkLYR0ZEQNwxfSIcQCIUMh4xSmDoA/uYRWc4QxUi3CsmIWGeZHrgnA0O1H4+wQIAYr+SAIMYrkeI0iXF8fGThGyL7bZGdqbldzcOfiDwmBmqvcFgWMa5wE82d2qodEXy7oynw23duz44VN0eE/1ev8tmPIR+4980/CVdsGCsvVvmZESmZm1zjsPhHbvBPfDP2KacIJghw9AL7Lf9iil71zBHRqTp9xydHmoo7kbEzjYje8Tkx1Xh9Z3eYpQgjV3e7LL5ttSPi5v3ixYvZA/2OzV0R4+gonw8JsdGbCbQGLQSmjFRPJw4FbMkDcjsZPfOBH7HAISXECmQkkLQaVBmh8ANJ58MRHYSkU8tsZiBNr0w2JXWq/amm5uiFHR+dzI5ODtVbO5vdeued2f0HD2LOWvW5fn0n5uNd+upulkWMq9tC82e2SkdUfON3o+DbIXxTKD7FwXn8D7wxMQL/yMIOd8Qa/sXz2eJf6Pb0HTKSr9KO6wCekRZMC4Hz/IuREHKMhHgeRAeP2QfOgRmJd965Nbt/775mJY7VKTyb7V3fFS9DVsWubFgW37beETFP/f4H74sYd2dH+aCRG7xha4QqLkfCkyCPbexMBNsCNjKESDKoORx6Xe7WBcxTneeaSeGvilMGD0QPUXBXXD3ELDC1T0m5O4zEPLXIATHoYR5qRIQjekeO6P0P3hNZToKsIg8rlE51HNSzxSu3WRYxrlzDXHBCq3ZE8O2999/zQoVj3cQH/ANnEQLewL85/DON3fDPeS3/4KTKKsn6Bl6hz3yKk8eWZZAljlYSqxbw7wL7YprFcER0/o418jkR1xjh0QlkqvH998Q35aMDZ3V9d8edw+hZ2hDGrlRYFt+23hE9ffp09sH7H8zuanru2FNzwFPBoA5SsCWV6TS7KOVxDCCj98SwX4k5u+DiHDsY7oppz38lG/xECCWmaGrHvyhdGxexRaKDfRRwjH0emp4I9DghpuVeHuKITjUiujX76KOPTAxIDDEYRbFE/eRYZPFqPSm5YmFZxLhizXLh6VyGI3r/PXX8xLejnEYeKsdyaCNbKXCgwT98mOOf8gTpgX+ehjBJBm0ZIZHFA6lPe9to+OdOo7ODay5Y8pI2X7GvDEY5OB46fofi2pGec51I4LY6fh89+lAc5HmsLKozyLOkXY2MGCXZvnOu1mZZfOuOSI6IEdG9u/fcuzH+EtDEQRDPeQLIijsRMFtSIGWJqI4XkCDAB+xjBIOj8agq1Np5uVxTdrAvcNdzpal99HqlnvY8LI0HpxoNiRgvX2pqTgS4rRVzjx997J4bVaWepDPHvWNynMBznRcWr05YFjGuTou8/kxW7Yjo+L1Px4+l2zwjAoSFf0HRvMrjGuUM+M9RCWdU/AO9xb929INMBfPPOM9ZDWW4HPaw5SCNth/ODYGyT3Y8I9KKOTkYHNGRng8dmW8v7XRu37k1e/T4Y89AxLMr8U2vUDBtd11841mSO62db9Hck213RCLGhx98qAeNd/w8BYgWL6KtACgpzA9o76igrb1gZpHIB9qElLUADoxum5KtAxnpt2ODSighrcZCFgxxpRL80pyohiuzolRP6Rjl0Ds780ILpglevIAYJ7Pbd+/MfvKT/yXSxHsN9B6xTY8OwvqZkUgVq/3IuxqhO6Ifdh0vwxF98AGOiMVBetAvTE7xDyeKTeS3bwM5HUpBHXEiuBS84czjPl8Cme5dxOFT8W+cwgj+UR4FozYnKIl8uAJ/1AXEEWk0x6q/ly81IhL/7mjp9v/63z9x3Eu7qbeqgSOinKfFNYrymY0nZ5ObvFkW37baETG8Zs7axGCqQD2coRvE0MfOw7d/gbElR0AHPCW8DeB4gzthXJmIMuWALq1gsF9CRJCMwtJbsuyRw3bZJw3ZYRtHOBCPcuihyfGw4u/lof5eHIoMx3rmdWf2f37ndxSPVT2exkOHSOGyckg7egEvHJXVX4nNsohxJRrje5zEZTgiOn53cESemgPbYF47oon/9oZtumS2dsGG5GPlkVr8c+cv1SJvN9PwLw2lzXn75iIWin82CEflivTHggueAzGNzzT4Sy12gmM4VvONaW/4nvz0fUNxHFi88Hq1RkbL4ttWOyJA5cUK72tqDkfEw1MjMXpAfEWBkVABHC8CnoMJLVYzUWXNJYMfBIP1cVpOPsBva9PnwjFhpULYraOJfUmGKASRjBRBCsAOwBn2Q+ojOaIXL577mPP55JPfNXFClhU82MMp1vMlPVDlmRHOSmG+Dk7auM2yiLFxJ/6GFV61I4qO3/tyRPd9MwfXi1jDCCTI1vAP4aKa4uNHSSIxs6zP7BLQi3/B5OSfuAcHklTZciSgIcKZuD7wX0l0IBnpnCri1XJyQuabRkTwj2dev/e7n4hL4hn3CTgqblJlHUVZdRr3dq/r6y04K5S6EmFwQ7fL4tvWOyIvVlAP7e49nhG9VEdIYFRvCODF8B8sAUkleGtkKaq9cZR7CY/gHilhMnktN3JBuSnmPFpyER50ijqKT+17ak51oxY4IhYbAHacCMTAETEaevnyhZ4LnaqHdnv205/+VCMe0yBJwdSCykIU6gJZNHWwo/cecMruSU4rt2HHyyLGhp32G1d31Y7Iz4g0NXdPfGOBDSQ608PQ4Fo8w2nx707UHP9Mz4F/4+gH0kgdPPIGrinBtCUPFocIEsFVxxQ/bz9ejwh51Gq+W/XUM1ntTzSleKjXJA41Dc7rH/APR/TT3/t98QtHBNdjxuKV+MezXjqN8I2OI6vpeM5k62NFfLxpm2XxbasdETfxg4MDLbvUiOh+EAPQuR/FzXoeusoxyn3DtnMCb3S1KriwgCc5P0Dl2EWIKMUOjpJQJHRVUR/iJJwgYgigjMSoTQQdZxTySdTfujqRI7EjEqlfihgvNSI6VA/tvoj++7//ByJPThVI3j01PUCN8iiLXhsPYHfVU4McTi1DaXmTdssixiad89vUddWOyCMizUBExw9HJBQKdP4kj/bgD9K0+I+ROjnFGXgijinpjCm0Coq2cwnoRTK0Bv9wTH7XyLoi1yJS7dk469IB/LdHhC/8MfsgvjAtx+yDZk/g2/PDcEQsdvqDPxDfNE0uirn+1eljZBR10Z4FDOLkdU2LM4XuGpO5oWFZfOuOCEdUU3O6gQM6OxEBA1e0wwgJoLATME0QHTsOzOlxCcHKcecLPIWjIVn55KhsigXmpc7QM/IpyRE644OmQcKQmdqnLpABfZ6ak/NgNETv8jk9NI2IeL/h3v37sz/6wz/UfDZuMXpimHFvLXtm0uT6u7cmh3bNq3viE0GcxyaGZRFjE8/9Teq8akfEiOjDDzUDcUczEBpVCPTJl+DKwD/4phMC/x71KD7wjxy4SJqIECWDY7QB6WzgUYyx2HMcOp0fAigNJWhJ/pn/JGcZ+Eac0QxfMWFREO/rMSI60LflcEwPHtyXI/ojyfBMNnmmytFhpJIuqwNVyedD5+96df58E5HcBoZl8U3XiqZZn7BqYtBDe0+OiBGEFysESt0gbdPQSM4aIgCqaToIZfCmgPIiN2UAPJPa1gIgEZabEuoBq2mFPoxo59I+JsFJg33GXF4xJzBDEnpnXrqtVTzPnx9oak4jIvXQfvbpp17IgB3syR0R1R/lRU6zBJJkmnTxQJWRosRIZLtRYVnE2KiTfovKXgbf3ueFVn2FAL61+A8+NZib4N+gdNqCE85iwbrglgkZSDaB0h2pMMLIaAv/oCVhqjvtx+rU5IxGPDihWrr94vlzdQSPdf94MPv0j382cgenY5V09iiLuZq2U8wjI81E7PHSKx8qxnyehCuzGZtl8W2rHVFNzXnVnFaZAShu+wGHiBkcBolAq330qiIP5+HpLpUhxSWNKHIAov6hrMpnPEqHvB0SFhP0lec6KM1FqjyZOBB2OCEN8Xm2c6geWixUeJGLFU7VQ7s3+/TTP45nP5KHDChjlIctnJC/VUeyHJPJojw+bU9PjSWp1ROlppsSlkWMTTnft63nqh1RPJNl+bamwo81Iqr5h8Q/2DT2zajF+GeWATCPLAv+VclxlJWtU/wB+i7HnsA25z+Ka5k6p5ERjfmmvWcgNC2nTh8joueaCue+wYjoj93xo7OHQTNNcSzCNx3jfDgiTnp2COMlc03T6d6xac5oWXzbakfETXyYKmDVHMu3y2vU+BzgCDSGfuBfMgQOcAmAjmM2TM+FLCnOQoS8KpvFXmmCe0cPmOwEUjb0oE/yAz8UpzjJ/FmfnJBAfcJ8tJzR8SEjIh6cMlXw3HPPD/SduZ//4ufx3CfJ4LLypEEIPJDOQKSwU6LmmOJYpNvZu+73JcjfpLAsYmzSOb9NXS/DEfHFj9taTHNy2HxuCl4If0UasG7Ak6j/hX8oJwSHHAfK8AKjTIvVbqMqJ6faiKs0Oop/JZD2XQVmCpL/dh3utPFzK+r4+XuOmpZ7yTt7z71YgU8VPXj3wewXP/+FVsQxNRf3DNdTqsLpVOdPPJM+aXK9mdHwAoa9XfOtZKnyJoRl8W3rHRFTc56zVg+Nm3lBHBCocTxvbFgDKHITsN6lsG/gymMU5F5aylhc8ciHNMSTODgEHduG1UZvyGmJwLA/7SWNgGZFHM6IablwRIyIXmjuXcS4/2D2q1/8Uk6G1T7UHBcp+5DM/5XiiqUjUrqdEkM+em56ZnR9RyMjOSUKbEpPbVnEyEtw5XerdETDDIS+rMDiIEbyJoda2bwx34JilZ5dwPE6JJ+KN3CKEiC8+McqNWYOwLkdmPYimhV7tAKkB/4pziGl037ZHviX3KDjar7pHaIjfcEErj3XH47ovhzRL3/xi+jIURuVMWeoBnrNPzimY/GLDqif9CKXnUFGRuXIolbrv10W39TW3I3WJ6ySGMOIiOXbD/StOY0sqjmM3WoWQCwP4YYC4ACdPyeUUOyrfGQb3hYrblQh51M+9cTXuUddlUUKMM4qBIiVRs+PF1l5b4FpOd7wZuk2P8xVPbRf/erXdkSUh5hU3SMwXXLXRwTADqMrloMzEqr600ujt8bqHuwgWHnUaV3Dsoixrue37HpdBt8YEfnLCvDNQNRZDa9DxBmCy+CIYgX+kmWvYFwjmMHydQBeFQ8XVTQLCafjHEJAgkqf2icPC8jhRORAPAOhF1YP/TKrZiDENZxRLFZ4d/brX//KU3jmicrBNwrCMk7BTqieE8FHOIYN6Y4vMGhanFcp6DxSOVeQeqxvWBbftt4ReTmpVvHws8WshgGqBRxjMTEQXEioG5yZIRBf450elwQ7lMIBNWlOAdYKCS6wj84Ktqu8sMA+HV8JSBZxHAk6ACvz1nzA9Og4puXcQzvQC61yHO+ph/arX39msNPjQh8v41E2yBUKic+PjEQOyyEvQsjGJi3tXhYxqtmv+v4yHJFnIHhdwlPhgWuPPtTYU/ybIvACuDK8SaY5nYvjyMg1HzNdJ/6BeuN90Bv6XUxZrB3CzRBCc+1JyxGS+SJdzBKIR3x1Oz6lFU7o+cEL8fBIP7ny3uyzz36teKywuyYORccv+GVHhK3knzmGA7IzSk7TEVShHb1nxGeEqEXcT6jheoZl8W3rHZGfEWlExFQBABuWiAJ+X3sgLVgKSUqKNMCUY367DKMY2ERADoiHM3FpZ1iH5w0K/iHHdEH8fhGlKBq6pvZr6TWO5VQyjFj8VQV6aBoNvXjOM6IDr9zhN18+/+xzAb0FNGSSbsrqL8yIMKoibs/vSVADESKcURCF0dEun7SXPbPLZ7Oem2URYz3Pbvm1ugxH9NFHmoFwx4/3aMChmCKwu4OEEwlgjvzjuOWfSwUXg6WB6WnrmH9yCMp1CA6TitUItqmDgX+NfQiCaS+91l2AqUXPQDAtp2l8Pu9zoI4f7wO9+967s89+/bnkGc1wLnKDOi+PdHysjc+VXfAPLpqfGFHwMfUV/3a0YOgsV6+uszNaFt+22hEBLEZED/3wVB891VyvEQroB7gCEoGXTgtscT9Lt21k8DEKAeyCd8gEtJQZxSnsAx9qE6SDAEoH8CVIXri+UJzp0XuLvAIwK3jKEbFQgXeInmuxAlMF7+m3UT77/AvVkUpGXW0F0EMESKB0ahXEoDeGn5EUZFJ+ydNr82o6f7V7vV/CWxYxaJZtCJfhiBgR8QIoy6AL/2CR//4Ttwz+AGfE4Z8vSIzuAS5QjgBmEc5yKZnEtEjIgmhxDklFKIL9mq62TasoPWjM0ZA6YcxA8KusR5pSfHGohQrq+D3Xe4jHWjX3rl6K//xzHBFldTbaE/OzIsXg1miHuDS7EuTRsYR/ilOOY/35PSPNbiBmZdqtW1gW37baETGM9tRcfnLEU3PG8zixZhAIBXDjTN0mRg7+LxQTj3+MaAAfhRUAjqIBSiSiF+Y8NiiTbOTb4JhV9ifos32rF4BFCEhB/XE68fMPByLGoR6eihha2cOPj30uRwQDcEVUKlRSHzxOOZ2mnmkTJwQR6NqFY4IkkCV+z+hUDtwaLe/o2myWRYy1OaEfuSKrdkQxFa7FCnJE8M1EMWHqRIMbQhwUGkLxDzwjXqMo4xp+wb+cbbA6hjjCr0dSyb/gm1RKmX+11dpNOMfId19T3LR97Oifp8/ENf/uF+8QaUTkl8e9WAFHdKKX4t+dffH5b8wTaMGtYOgEmuvSqAz/SafPx8eqprhlJ4UjwrJO0aMwRXa0YIhpeAkpb/3Csvi29Y6IqbmP1EO7o+XbHhEV+gUKfy4eQAFQg3IEApCJ3lTkjznEJK9+l0EFnSgfyVo2qpiAFp8ZAZhREn12VxZUEeyjKUdMjkuGdBXXsmwt3VZvCafDOw0sVuDh6YEcEb/K+r5WJn3xxWfWb93UX8Yoa4JSOwHd9kknHhaVFr1AMnFEECXipNNT0++raDrCrtgKULoeYVnEWI+z+fFrsUpHVKvm+Po2H+XloX84IsHL6EvwczTwT2nCWOBf4opDGbYxmiI+BudaPvhX+l2esvCp4V/lRznpQZBg/oVDsiMSB5iC88vjcqC8yArnYgbi2F9n+eILzUBgQ38ogkcEH5MOd6WfVXNUApuI4rCKi+YesuIZeaTzExLrOk23LL51RyRH9PDhw5iz1sNTg0MwMR4BjcAD4IEUwGAURB5QSh+hGICRnPakWwCwK4Ey/styZEeI8VQ4OHTGMXnWTUSGuPHb4bku5Emx6kTvzD//oPcZWLr9nFVz9NByscIHmir4zZdfyImENgBtC/TO0KFkTw0on3/DsfLOojuneitOvv4U054yeuYkInkOW44w9FPZ9QjLIsZ6nM2PX4tVOqJhlao6fvf1CapDrfYEd+B8iv9ID+wN+BcuQW/8F2fgBOUV2BX/nCTMFv/QDsYl7jA4CtIQbuzbkUSSZasTxgjF0+DDiOiFOoDi2zOeEWkG4oP3Z1/KEcms9GlDRHrNH0WDY+FcbIM0CJV5ToNnxTmfWMx8wD+m6bAf56xCaxKWxbetdkTDM6JyRPTQfI0DuHFglIIagx4qkG4xNhwqAKSgicDl0ZCODUilAkgjLiSQlXexeopTwgcGHzLz9sNWSmkHObxqjqXb6p0xImLZth+eslhB0wh8P+9PvmSqQKpVD1S7uorYAWFRcf85jqORME5IIXpoOKKMK+J6S4m/6CDFXmoqZ0RwnmOXu1kWMS73LFZn/TIcEcu3+fq2p+bAIAQxP4zQAf8Dppw95iFrDEfS0FjBGwM+8Fj8o0OIVDoyl02T3k3suyra+F/i3y+eilfmG7MPepkVzjELcayfAv/gvQ9mX375pcrAk3J80uDqaK8K8EcC/IVmOBhtdS5UjmN18mxPacR1QBk7J3VIY/Wq0vhnZVHuMrfL4ttWO6JpD41hty67LnMGgKsLzlvYfGYbABgZCWLAtEO+qBMeSShCJPNjp61B49IWgx9RRhGyhcRBFrfEgTNG+8x/G+QGaiyr5r0GPnbqrwB7RHQgcvCLkUwVfCBH9GWAnDqCcBEuzqGqFKCm14ZJCMFCBe0cKIIn8j+Wr/LPrIEo/Ikc13dkb30+ab8sYmQTXPndKh1RTc0xFX6Xb815ak44EuBiNGMUzuGfzFc7AmLxT1dk8BvEuVkbvbghACuMB5lUxv8BtdL1R0H+Z7pv5jqGfx51WQ88iSLGv8oyC8C34U7kcFiowEjIi4P4sgJfMmEqXM+Zv1THr2yiW2p8btg379i6KnHOdjRKq1kP2iFW3SEnrkErOy1k9NxW9aDzRz3sdK1MMpcYlsW3rXdEPDz96EO9YHePny7WC3ZcYoADYEAsweAFVgEnMg0zIxpICC9KIfhWXw9Na64gijofgKbWkXwYk7MLZ4NZJGzUZWxASZR1b0rgNDHOjvPzPod6NkQPTfPW2vMRxfe0nPRP/u+faLUfxJRuVGrDLvY6AzHWyQa7zkAchAyA32LKtU0KKyOmDZSHHiVBDMrsag7bv7bpUpe7WRYxLvcsVmd9lY6o7fgxIuLnS8wj8BTLUn08xT+orc/4AM+gU/KDBODJJvPKE7kDCZQb/iETkpns8tq4swkfgv8hV5hXDTQioYMX33XUDIR++4uFQYyIcEQPxLc//dM/VWnJZqex7NqeOcOZQB/t9cd52vnAt+Ro8S94J2ckghHHx3omQrLwbV2+eLIsvqktOMv1CZdBDE8VaM6aLxQAiAHIQ9MIybQSO/WqGAUN01tOrsyUYSeZ6pmh8kxA9yftlYcyl0APwCeJ3prtAVISCBUJ+5TCLp+iZ86a5ds88PXnfbSS56WeDz1/qd8jkkPd37sx+39//mezm/v7IobKieh2PGUDu/S6qCRgl32m5qgRzgVYBDRUB/0ffluFasm+66H0mkK4ztJuEZI6XmZYFjEu8xxWafty+MZ7e/qFVvGtxb+nhgf+0QqFJWEzSVH8qxzvM8/iJpOpOvCPdPA/8A8bxj98ooCOi3+N/eAAIxOmwuM9Ij5weuSpOZxRdP5Yubonvv35n/35bP/mvrlhJ+NTkO60b2fqQ3imIF6yErUID0/NPyfJLsdwE/4mH4v/8XtG8YyWql9WWBbfttoR1VSB3/RWD403vY1HX9UAKIABK0zM4TEK83Hh87YbWQGuBhEAGS3VKSPLOFcqgHOmFXIcedhHPsxJvxLKvmEKKHFCOAP9+XdRROhD9dA8b613iV5qeg7dn+prwJ988ol1m+RpQypsDH0muI6HfaYFCZGoPBFCFfGUXJKDikEpiApZeKDqXpuOLyssixiXVf9V270cR/RQz4jia/dgCLAmJBUPzJFGaot/MB1Tw9FKOhycDXFu0tPgdBIzr/hnIlpBYdyUmOe/cA6S4Zp/Jhy+8V1HT4fHM9nn8E3v8FHbn/3sZ7NPfvcTTkHmRg7gbMIUo6DkN8whjpz33lBRDpWnPVzXUcyCxPR3TYmTtsfnt/JeoCKXEpbFt612RDVVwJy1H55q6G0UNJfUQNbFLoTSgSIttoKM/wMdMuI4UBeqAFSMeQQpORVEHFIUKfQBypyri3ynVZ4y7ZAETgCqP0ZD8bPFmi7Q5/TrZ8Jf8KxI5OBL4rv6oi/k+PjxT2Y3FMd+nN9gPG0J7K5A1kNC2CDNPTudv2viNOL6pybxaCjJYtJoUnv/5k0/0D1UPXZ2mJtcbVgWMVZb68uztkpHVIuDPAPBe0QaSRBa/Mf9GzJEiLzAv2Bn7DU5JaY9ksImRV0osuJQCVJcg5/IGbcuScGmHLlwAJs1JRY/AaH3iFRvd/zSCb3QMyOeHe3pi/V/9LNPZ48/fuwZCWxbQc06QIecti/ddfIe/ZhXZpfLucMI5+Afe3XwYB/nwi2Jet3cv+nFSrxUy+smqw7L4tvWO6J4wU7LSVnFI4CVozBQfF3z4goIAazoqQkHxhC5AY4GAiGofPXpeNFOQHTvLsvEB05VEnA5DS0qpN2c/UjVtjiiOoBDbVio0H7iJ15q1W+kMEWnVXQ4IqbKruuHt27c2PcLhDtaWDDYweuhDOdohyFXQ9xJIWdgaw0s+OZhrmV1vMOKPx1f137n2nX9siv7nRlfD+aL3exZXRT2XP2VbZZFjJVV+JINrdIRVcfv4UM+eiq+CaPRsROeGvwLgoImzCCQF1vSK+ZO0nDkjNhIyNx1HjiFtyP/wPzIP8kiYhvI0fFKNXBDgR3pcM2Lg8QpFgjxiZ/42DCf1xLvNCuBowX7++IbP4V+HV5ZYXAIfdAoNmTZ+Nhh06EknR90o1zwrfjHC67XxWO4ab7BOR3zfHuTO35b7Yjmemg4IhHDmAQxwFMgolcCdgKWPGfRJJ1v4JlIZoaBAIBfIKMMt3RTysBOTQDQ93qUS7Y4R4FBX9lXIukKQRStDVJ3iCG9R0VySDhQphVf6o+VSEdHECM+zsiUXE0NAGq08LItzsOmZJ9jQKzobEa6QI4sjsbtoDwcjTig7F3n8x7RdWS0x+Hs7e4NxLh9+5bIeehjKVhp6I7ohzX3Kh0RuH3y5EksDuIZEavmAB18IIC/IQo+wfmQZAGwCs9cZD4TDRngX6gr/oXa7A6WHfMYwcFoRBuu4vBsDx5pBHLKR4Z5LqsbP89m6QAG58RBjUpwtlgO52f2WGc5EizBrWt04nSGipIS/OPY/As+mn9wDP7hgPS9x12tmqMjeH1PfFP6rnh3S3xjBgLHtOqwLL5ttSMCNIyI6veI+I5UDlF8PQFNAQpogV8QHjjWlhu2QJw5lgbDLuO7upNyIzkDXIepIWIQThrIw2AMkcjyIbrCZlgxKWyE4TnO6MzPiViBVJ/7oXfEEk8TQ1N4nGeop+autjaiAd0u6QfY/NsRCWANJImeGNkiArJOG/MgiXtkIoYYJVJc93sOOzq+qek56kJAJuz48EffLIsYP3pF18TAKh3R2PFjKpzl27xADvJMmrHXBiwd4AX5MCawSzIxl/GB2UOMRGeWTpdxsShhGW/QG0cla6WN1wqu0hGVfQm742e+0fETv+j8ac+UHFPjzD6UI+LzWyqRBlRe9TKffF46lh07I2fQyQsZdwZ1EnTslGJeajPwjy8s4HyYwTD/9IwIx7T/zr6cekzNWYd5PZ7tjxlbFt+22hGNxGD5thYriBgB60S0ryAoEmqZ281khvZOUj6A8YGRrdIe3pDaEKRBAj0s3cNjFGRn1eiVGXqBkCPoRsHU7yWhRSDtIQUEEejjUz8ihqYGcACQgnd7OD96cTXHjDbI6SkD6Y2Rj/aukO4DdjiyyHQbZv1HbyzOBwKIHh4ZFZHoqTlfwhXHEfEAl6mMfa3a646Ill/PsEpHVB0//x7RHf3sin8qHJCpbdIxTPkXXNBNfeCfhLUCtfjnchwk/0JR4NWdtlLs5g/tA/+UZ7MX2I9OHwXFM42+OI5vPIbTCYekuDqwdARZUn3GlHnKWjmnJ27EHx6IThv3CZ0GvKpOXvKRNDyVdy6H48FHw0PFxU06jMHV4NxNOSIvIxff4RtyqwrdES2hpSEG35p7+JDP0j/wEDtIUcisfcF7NGrcD8MX4AyAIABOQvIiBw/wDUCATJ5RrzyAapCpGDK8Q6QpP6zwz2N59lEZ7cnJLWU5Rkzv8XgVjc6DrymE89H0gADphQxySCaTnJafY6mca6iyOBXwimuxI4IQKFaaHZGsAHYYgQx7WmOYYkBeBa7hiEhHmdNmniNnGTnO6J133lnplMGyiKFT2oqwakfkn13Re3v87AojiCn+DTKNQgLxtUdMWJu7Ihzl9IHygG7xjwNUwDOniZAj/8iQ/MA/6YCryb/WfnAMG2HfS6lxNsoIrskBucMH55i6E8vc8WM8pLjNwx/ph29SHk4iOSe95o4ci9jmfBLMOFWzOnuqqs8D7nn0JF2Rx/2FZ8B7XqzE1/c3lW9bPyI60Gfc/Vl6fYTRX1YI7AIdrr7+YssRoDa6FOUGTy7bGiF5GsGgbsogIVZYxvLaEFTeOonqLyyNBzWyUkraISI9gJ2y2FdBRkXxYikr6RgdqWcmR4QchPFoCMdIPbxFTQAafXYvMh4OU0cZh8hQA+PlfMikp+ZEbSMdGXSToT/Fb+yph6Z3LGjbW7duacpO03crCt0R/bCGXqUjamcg7vujp3zJ5Dz+weCUf/gUQ0yYrgDijGrwp2RBXhCFG2Az8qwd/skxhHyUbuNwaQiKtvadB48sgm44Jm7Z6fCzEHQCj7NDSK15rSJsocg8xcWIJjgiKMXByCOlkewd/Is/0swpHcMzM0xCSrYM9a38vf09f2OSn6S4ffv2Rnb8ttoR1Yho+PaVemgBHNAoxAA+A5tLHq/eGZjkgfwBnEbFkARYnKUIDgHIEFKde2tAK/87z5sBuACawkpdYJ9k5qxtB5IwStLe03U4IP+JEJlmXaFMX1qQnAqWMzLA8xjiEAx7zlExE5s9NRrahAJBHkeQVFlKU7cbN27YCdH7vXPnzkYSQ6exFWGVjqj49qF+GI9VqjzXAC9DaPC/iH9grUY58MJ4KwUcgG3tCoejACkxqjFtdUjKIEemCsKLRfwPfolvknHcurQoQfyyU9JsRHGNvQPcswEdizdE4ResYjRmx6N0iytz6OwhjiHzz0WiYkpzx5CKqjwKXUb69nbFN31jcpP51h2RbpbliFjFE/AGLQCH/4A7b7IQhaPEAj4GTBhMbIwylZsLKqMptFTmsraBEgUTy7HRVmRQBSTP24dwBEgRUhwgxygIndljK5TLabmEz4f6SF72cR5k+OzSt3JC5GOXuPc6MYuyUTqplC25VxBNB3CHXBzRM7Xrt99+6/ezVrmap4+IdIl+QLgMR/TRR3qh9T4zEFrQAhYzgDXw40C68TrBP6ADa8ob+AceSQd/lPMm1FiJeBH7yLON5F9rX8RZbJ8RVXLITBLJqCVfG6EMsxLR4RxHTqU3eCInRoX1xz+ql37GeqJnSA3JYMv5RJUjbXRk1Rqosx6J7em50LMnT2dPnj7xrwhsIt+6I/IzIt701i9G6l0AX39QpohHDsZGgMc3bwScbcmQr+PMs0C7UXpA3BBzGUTz81Y61lGWZQfIKskEA5zOUPmUMyEUxxkBVvfmFLccx4qEk3PBif0wYF04z6ADERsnlxAmtXWFlKoCYV8WiWO5yXYBpTFnzWpEHBE/Cb2JxIgWuPrby3BE8bMrfMlEfANsAUc3tjGXxxfxD8zR6aIg8kDYejggHiSIA23BafHPZVxeIwz2rX0fl5LIA+/hTOCUtJCtjfmHfXlDVHDsjqGLp46sgXnimiZnzKfgv51n1tH1Vh76CNSNOoZzcs05UAY7bxSZ6ZnsjdmTZ09nT+WMNnUGojsiO6JHWjXHD+NpOalABhBGKAmAjAgS+M7UCh6wBBwDpBxQAllK11Bp1ORs5SJTwE4KKY0bellcYN9syV6d1Yd9fx4Em+RTXuCMuGiRSSaK41VnnU0SAdn2fL1ogfpJ1ViL6flLD1W1Ts5FcR/EjviNG7uzpziib7ojonXWOVyOI6qfgWAxTTkUEAeYRuRFu03xp1SvoAPrgT9jXuUioCPcxOCdrDZ0F/9iNqHScGijfSketCFf/DdfyGEkpKKj/YhbltOhTGMzVqUqwWVwXM7UsacQ6sjlKEu+KSZyuSYoC1JqH/zzPSTvP3zn7tlT8e3Jt90R0fzLCKskxtzDU63iqcUKvvi+8ADG+PG+oO4DbQyWOgAy3JUTiG2m4WQwKVv5cfMOMAN6W1BRj2AKdI19m5gjRxgt+xDCf8YrdVYO/x1FinzsqibsQ6Er4nNFJIuNJFCiFSBsKZdqN1Us0iRjklyb7ckRHZgYT/zwtC9WaFttveKr5Fs9I3r48JG+9KFvzfmTWoHNwp8xB/Yb/AdeQeF88PGwGfFnSaUX/gf+6cEMfq/4Z1RDCIwn/rOQdigIe639TPJIKEtmpazNRt1BpTiGpL9Us1J1nIqXQKM46iRVqrQ1yX68ozgnlrZiV/aZCuf5EC8Ls1hhE/m29SMi/wyEf6grV821sDKSGV3QC0k4FaokN3IlEmMrGIGQDNzY6Z8xfYCPSphJpm75JWnkBggtRc8pSg32mRq4wD7gZRov/mFHlkyCcVqCehXg3e9qEqpnGrWhlo196VKCAgpix9Hi89ectabmDp4dzL755hv30DaRGJzfNoRVO6LiG79H5C8rZCOD1TFM8Pcd/Iui4w0fTcC0AgsIin87Ai2S5h98KiHHqlTYD7It5r+5pcKUtw4VpRR14dg00UGMXMY8FimQ7xdlo2TWoErFYSxGmvAfeSsOmeKfR0SammMqnKm5TeTb1jsiehL00HihlU/jcAPnZh09F0NLlx+XgBuJLQCICWYAoQNjKBEGUCQfN3bylGD0zRPFiEVUwaRw8XHYXj03VLf2/bkeEj3B7dKD/SLkiNa07zrZkKtKqTZgX1VWPU45+zx/JblOqd7nmROUF9iPdsARMVXwRD20zZ2zbtvnKsdX7YjgmxcH+RM/8fWNAf+5qCf41+Lvu/kHJAt/i/AfnbIQmV7P4A15wb/WvlfDiRMX8d88x3iRxVxjk07Otw2TC4q5itiP+nq7gP/Kx4mlXMt/d2Yp1vD/hqbmmApnRNSfEdG6SwirJAZTc/Ue0f0kRkBDN2MBgZFIOBROjBygQYhelbFAp6WCRHBdgzsphLusBPFgQhLLM5lmngtS7R6OEgHeNc3heWjvskiO9qmTwakkv4dXinSMff2Yo3uANu8qU5aK0mOjZNS/inmfqCcfLXX+YReJLOP815//rt4jOjh45hFRX6zg1l3bzSr5xtRcjIjGT/wMDfM98AcuIyzAn2Bb2K6x/ID/jHi6LfkHCypEtlLQ4cR5/AcnghdT+2emVZSicPG/kqlpaJ3nf9iPXIuoOlP7PArTSYXJEvLR/PnjiGhXZiA2lW9bPSIqRxTLt/nkSHyJwCASCICAf0zLD3Z0LMfkGzQ5xMFJdlE4IkognQ2yztZhijVwCsgyYiKGNZZBA3rbjxTpoCLYa+zrOAcxF9gPgEddpV9l5+xTPiqI0nP2XQ57qgPnP7XvRRKvOf99Tc091dTct31qTi243mHVjogR0aNHmoG4oxmIE3309A3wZ3RfgD8jG+AKtlP80/vLrBIY7JMDJwb+NfivzuhF/I+SwTGutooO9qNTmvcBGT9n3zcNUqWl5X/aN/+/4/7DC61MhTM1158R0fhLCKsmBj2JD/WMiBHRkb4YHSjKE7EDAFYxgjHARiTNny2EMnhSoCnrHhU3dH4O2QZKhsPSTWGl20iojp5YxrNkIRkNlo9sxc/bt4wLIDtvH1NksXAnFgHN2486IxAVQtwxRdoHuWW+tV8PTzd5zno4ryseuQy+RccvfhF5If7AGOAcOGSoDvhrOTJcngH/MVsQoAaxIJed4vwki+Nsdaxdaz/4lvIlV/jPIkkWcudDFnO9rRvlo/3osJ7nf9l3xSb8H8+/7hEyWfVorHtqTouDnjztjqhplreLrpIYNSLivYZ7et+FXztth8dcdV93MJsYql4WeTGWGKAXKLE3qpyxLZhrRjcYbeAZCZTM5XRjXsQo4nooguqoX+SFlXiJlRTkwhumfdl0eWUa4xygIySVxknl+MsClLOWKJflfUoT+5A2ZM+f/w296f1MU3Ob3ENTM2xFWCXfatXcI/hGx48XyHEQoG0B/uCaaSeRzF6A//P4cyHpNPa5ilUeM4ozA4E+253gn4woF/Ui3uI/RlWRVyy3DNpcSSKVozih7Otk4v27sBzbkX+DniqU52D7uWT8PP9f5eIgpuY293UJXeu4JD73NdhcBjFwRPcf0EPLh6dcdOMjAAcyDQYARZ4DeUKWMoYVdUJc9sdGkRJXygBUAKkHTDv8tlHC3nvLJmon9gFtcXZUbpqShXb9LbY/2A0RVxv78dtK6HDR1NPaVxLw0P86/7AVBezIJD49/30/PI3lpJv68NRtsgWby+Db40ePZ3f0U+EnR/EeEbDkZh3YavHHVBlkWYy/7+LfyKlGP3ak8kyjo5Z/U/sx6s9KtfZdHWqciqb89+3UZ9Sc0yhez6mm/C/7LnnB/cdMHW7Xo313/Fg11xcrqKGXFFZNDKbm3EPTclJ/WUHXN0Y9uWfsPN59fZbcnA3RwqOOAD1b94WcGcV8A7ecNkr3IMTdsnAsHiVJlHI8exlUkiY7zBvbvjJMrNQ9Z1954QAX2w/fKRhjn97anH1pddUgfdZJFglhP9IjhUT9WR5dccyeutX57+5rRMQnRzb4vYbhfK94ZJV8G2Yg/IkffckkZyAKSIvxx3NT34LjSizAH6Bs8Td02MCngjtTEG2K/8i0jHk7h3/JizgD/yylTdqnzoX/qX0vMoB0mLRNyo32cYQcJw2tubUfihFZYF/S0/uPl28zA9EXK7gtl7JZJTFqqoDl2/cf5C+05lkINlzxOAJERo0ODSJjbMwPqQGjHAZeDS/wOBxT0sctkNFdyzExVTKp1yCWDOWGOeoiRMl4r5IWGu0FReM4HFIIuDjR1DN97lNZqK1enGXz/KuczVJfFagqxSqep7Nv+id+onnWeHsZfHv0WHzTT4Xz66YBGqGU56cBTbdWi78R/0pdiL9o4MIfRxEP/rmTpqJ0lcqIY6QRQWfxT1FC2R+c2IT/limyuUTZzAPbIy35bp1h37ov4n8W91R+xuv8XX3qqtDyNT6pFe/t9VVz0T5vvV01MbyclKk5v0fED+MBwoChQZhnFL4ocmMrOYAogF7zQ1BSFVwUAoyTdKEts0IqbJCRoXSyLxA22YnFlALEVXBiP+p8gX0XipLm1aAklFE2LOTIqmywT1ksV12dnfbt5Fx5PsKorwFrdVR3RG0Drmd81XyL9/b0jEhT4fy8fRtehz/4F/fgxfiLVGkDp0yXtfwzrtsUiQmr6CS4SHJqin+LUF6Rep1iHv9oGLne2nd9KSeJKsOeYPsSKCa3+cP9h5IUVpja5x7hIEX7+7taqHCgGYj+iZ9olCVsL4sYD/Tw9JBvzXnONy6ywaEogKrfORmARJr+jIchMt8A0CEftzojdJAaAIwHtQKxwFRvXJd9asDQHCvn7CvdadYjfXP2BWNQLsuL7OdK0MK35Vr71psgR8vUvpmhakXN0kpjn5tJu2puU3toPvUt2FwG31i+fa9+/0tIavHnmz0gVTiPP1Cn8Br8hUBsW/xzcy+Yej8Ihv2YQlN8wn/jHz7IE3iX5Qb8z0UGpY7Yfk63kzDP/5Bl2nF6/sH7OH9snuO/ipZZOoDxuoSeEfXFCtGoy9iukhjMWTMi+vjx49ltffuK30eJK5yX2UxIACopoJyvqyoPkDgokjDXYQPzinofBxTxUx/0KYlUFPHPR95FPNIi7pkLe5x6M0G5ZEWpiX16aBmieBgrK0rDYWDfH0Cd2B/cXFTOFlr7Q1UvsL+3d13fvtrsN72r+a76fpV8q6lwOyKm5vSMaBH+hM7A74X4U0Y6Bq4PYt+bf8K65eGAIq1988l88abIGRZ0x7+Q/9g3F7Jc1L4q5tpV5xCJOf5nZeCjC3iXcfKki6yWfzg4/ld9+bbj0xwR9feIaLMlhFUTA0fkVXOMiPRZ+hhdzA/jfVq66v65YUDGf6HYsgBFAi4BsgkkMMShuwJhlJs5ziaNBQOIUbJ9GDu1b7ChQcJn0ulSihewMYb+HaYH5+wrx/Nli+3DwgH8WRPXJgEeea6gN+ftV955+3t7489A9FVz1U7rub8Uvj1iKjz45jvqBH9gM6aegiG03Dz+hLnC+oX4v5h/dLRa/gVhm+sD18yqMc32TWLIp/+yP/I/+JcDuVC3gP8Dp6Rsan/gOTY4/8Y+rcAoafH952y2py+ZPHv2rZZv998jGq/YW8ZWTYx60/tefX0blBF0E/cHC0GbQAA+hnlZxbn9Rm8qcEeRAWgGEUuzawIt6KYELduWJiV7mE4CmgGZyyiOIUJjv37zJGvm7LIPgEe7ztLGrknbhHPWH3Ot/en52F2mfZyY3R7HWX5q36LoLLO5D0fEw9OvN/YjjJNTurKHq+TbsGqOxUHmG+8RRdNGd0aISvyBf4Kn6n4g/kAkX4e7mH/oxiL7MNjaN58a/s3jX5IqhvyU/64vOl3f8/bRG1OPsipnxL/WPg7IHhdFE/vWjeEMrf3d7Pj1T/xU6yxhv0pi1FQBv+rJYgU/IwIsOg/DUxtuyAAOjEQvjN4UQARMxpzPmmOG3OaPu0/KV0Jgh3FMODMLe5NpgzElWu8F9lM3pajb1D5OxUN+dCOAs0v7yEICkscQ9q3IOvNYAkOVVODsVO9bNOc/tR+/6xJlyj4fPeVnIL75Nr6+3X8Yb2z1dYtdBt8eMSK6/8B8+y78RYdI+BIWPQoxVhOj4NOEm8ffFP8Q4jz/0GfCmS8x1wDyU7f3KjXhP5riv/jkOrkISXNTbnYki/jv4khnnSKqozi2s3JubObs+3eYzt9/6plsd0Rqs2WFVRKjnhE9/vjjeHiqqTmjElD43YUBJaDWeQaM4nYXmV3nTl78WF2CzA5JqQASIbHJOehiZKSdtkr2VhElWDDKx4HynC2Llg9Zi7HhUCEcDeUYhdEbgygSEHix79HPAvsuywbDGJDCrKXTBrfX5CGLZGy0S88c5c60WGHfv49Sn/jpjojGWs+wSr5Vx49nRP6klhYHAV8QazA1GAuEBR4Da0gFNr8Lf4vwHzoS2dhJ/oH5Of41+HcdogoyGRE0YD/45CppE6HwTz3t5Br+tfZdNtSEtpb/pEi4Pf8QKvtUJXLNP4m3jqj/DERdjbfcXwYxeEb07gN6aFqs4KFEnMQrbuJcdL9jEDd3ctwTEi+4Ae8YFKAKGAZZgEw4BgAFsJwSBXUY923KKJ3s6nVxIB1IO+A4pvbJzBs/vcTWvuuufNJT9Zx961XeIvv1o3nj+UuwsU9bJPx9/uhv7XOKdf78HhGLFTa5hxYX4OpvV8m3mpp7xA/j5Sd+Cv/LxN9F+Ddwp/gXkBlVedSf/PPOFYMDQr1XCszz3/g3FetpTsN/FSO/ZBbzH9UmzTn+27TLL+A/NkVg+snFP2Yg2o8Mb2LHT/c5WmN9wiqJQQ/NX1ZgOel9fX378FjYiYvPbZU7doHFXyNQLo0VOM2C0rIAAA2fSURBVMvRBzdrpZX7IG6EIJsOIwuQ41ANHlNZKsElsLNDZ4KvlZRIax95Ozjrn9pXHkN4ahoGqsKh0WUdzezRfjgbbOVZop+Q9r3UNA4X2qetsMzD0wN9cuRrPSPqy7dpwPUNq+ab3yPyiOiePvETfCv8fyf+hLrC2EX4t67yRAvwz5VIVM/hP5zNyL8EvS+c2ZY6kxkN/kPhQv7D6eibjkYb+2YpCuHbhP82bFnlJf9QgniVi/uL3iOSI/pWv//Vv6xQrbaE/WUQw1MFGhEdMTWXN/c4FYCfJ5UIYBgfo5CUsEBlKg2U5A4MogCVZwKaf1LCmSHPDT8WY1NABdE12C/b87rLfkyNFzAnMqgBtEZsqGztx/RdOLxz9imHOoeKUDclaMc5zZ2/kzNTO2oUP4ynF1o3+JMjPv0t2FwG3x7rywqMiI7Ftx+KPyNNAGVPCOTFloPKMfQvwL85JjBP+RcfHkYJBQnoJYhNjkr7lP9kF2GQyaKtfZ4Xtfybsz+QVCXQM/DfigfVeaLz9iWOA+Q9omf6GYivv97cxUFbPSIapgrUQ+MXWnnT2/4ADABUYK0E98IMkhFzIaFj8COgGXguN78h3XPCmWycIU3EhQK93pKkNOJlnxs/ppkYQL4wbxEdDDhGzonjpnqP1SkjB7N2kKkvFHKmkWcbCNpcnf+8fduRbVffG1ct7csR8fVtjYj4skJfvk1jrm+4HEeUz2T1HtEUf4V/cD7yb4o/ZTpfuwX4azlC9hT/w2jKZUFzi39hniSlTe2TDKcquHhjv+V5K2O+Zbkp/0sf2b4lSF9YaO3TmUUA+6XZh5bd29vVLyKzOGhz+bbVjqgenrJq7h6f+DExxgtNzDjT1Td42SuBtBEGPkg+CSUAxYUynUMVYhTisg2QQiLFSa+phMqgrP5qAQS6z9knrYwGygf7pAd+rUVl6QWOygPU6VAW2C9HZrLkHWKwP9gtfbKR9v2MSB897T8DUW2zvvtVOqJhcZBXqfIlExYHXYT/wi43X4HtB+AvIG6AJjMW47+uCrnmQvKveDHWrbFvjUNOqdA+bWDcCiMrDpXAFxSa9KZgchwbSqVAE5ykCr3u/hN845ns5k6Fb70jqmdEtYonEFngBxFAoTACOaKnUr2sOewYMBJOMCHJzRkQ2RUp3/K+YSsmubixp5YQt70gX1lGJ3riONxa1ImS53pijX3mvqvOJNvSYH/U6cpM7Us+VUU5zCuWbtVpPgenj5v4oS5GRH359tgq6xlbpSOqjt/HH9Pxix/GCx4ZlQYn0CQY/+wTeSmhlMIfMQnHf4qMoUDrlJF/JM/jX8XBfKQ609SQ3PiSOSWyXBODc+RYn9NzA0/TvvVKYfE/kjlWDMO5K/uWzLJT/mMneN6ef9jHET3Rtx35xE//skJ7Md4ivkpizPXQWMWjqTnwEUjSBReIeBZDUgQgtaNVNqKP5ZQ6ZpaQ9nHzB1N0ssppIWyAY8S9L5Trz0YlSIFB37x9stAUvyFEOR3OyVPtkPKqGunkqOzXObnQxL5XqqN+Tl/ZV2KotYBfFMRO2jepKNsEvgbMqjnmrPtihaZh1jC6Sr7BG34a5PGjj2f33w1HBLjqxr0Yf2q0RuA8/mjUAaBu4Rb/0EtsTFoVaLX/Dv6h0R2uhLoVW48myVUfU3b+5hAi3sY5oaP4h+Uijfl2gX3r9fkW/6KUi3Oe8Jr8PBX27TPZTZ0K7yMifo+IVTz00E40Z51eg4sd11qAEAraG27c8AGD8gAGACEkOAJHmeYdGzIjRG8rjqu3ZBXzqF1o3ySQGruZqX1qIlPWCQMJrX1lRirbefs855qwZrCP0ipZKlv7+o3YsJPnH7+PolVzX23uw1POcxvCKh3R2PHjPSItDuIjw0KZGbRE/E3xH3xtr+Z5/JsYC/hXvmYh/lG5iP+ck/hnuybcaC9qQV7F4vyn9ikbdCIfemUB4i6s4+T/rr4152dEWhzUR0TRrm+9vRRiaKrAjsgv2HHJ89L7givubhV7UKCNl1rKZxksmV+yBozShJMWPNEw4bSM9wITSvXfxbQLiSbB+VLGkuxKpj4kWZ50jvVHae+JhSYlzgXq7Hf5XDjKoLeqM37lijxC6k9fU+fvJnFu5HvFEbKq2A0t337KYgURY1N7aJz5NoRV8q1el/AzWX309Og4XyAHf9zxFS7GP8hSSP5N8cfURWhgC/rn8R9l0bEY/1n4nP24Fwj8A/9UWfG/7Ltcw7+oZdoXqapWVL3ObuBf5QZtGgkapMoqbmPsJcL5p73if8xAPNEMxDcbOwOx9SMi3muIOWt6aCzfzoudyKwbe8DbWMkNggz6FXwXByABfxLBS0suf7DQwmQIZJJVRCoEagH7lX423MdOzryoDBZsh9QKNlnDt8p1DwldkhdYvZov6zTaVx6kJR2FE/vKobAyqGzt48hbkh1cWLGUMUHIiFVzTw9iRNSn5txYa7tZtSOCb/xU+D29LnHM4qAfiD/fg92aE/wZh2SAX/1X9hT/SQxlXIz/gHNiurCNVuN+AL9SGvvow3RybWpfFYkPlobQxL7cCVxdwP/WJkWxOAYcbfQOb/hbcwezr77+qjuisYHeLrZKYrTLt8fFCsaTLnJz6RugJSJ9kgHXERBeFGBQqdOkTHpT6IlPuHNEWoSK4+gaSxbAQbSpJWvPEeh0NVK7nY4JKvbFlACgtWVb9PShBAY9VKHOyRINyF0ZlbUdSkSe6+2KVV6lyxK6JcD5c7J7u3t6ofWZiNGn5tyAa7xZNd9YHMQntR7ktx1pmin+A/1j6oDbwh8l9D/Sz+OPZzDFPwQH/KtMdh3nuDBaispcxD/kTDz2Cq19j8ga/rX28YrBRrYRhnPSYXV2nSOBqX1sulyef6qwfflxPSOKqblNfibbR0QeEfFeA1MFetNbFx3YDB+I0x02HubHq3cGDR9vqxu7EQLc82YslAwgc8Q5BjCivmErnSz+AFIkspflRfYBuCjk8RYOYs6+9FtHo0aqSMLykJlprX3ykBtCY59WcCbnP7HvvMn5I27dUuavb6tdv+5Tc0PTrmtklY6oVs09zqnwYz8jalrme+LPPBE44Y+xj4oGfxwGTx2JTKLEoEQC1eWVNoTG/hz/G/zXyjUUTe3bGUnZoHcQIALXVcb2Q2aQU15xeCH/mYO7kP/BN6bCeSa7qTMQ3RGVI9Jn6XnTO+AFMvQnpFRfBqT45VYklCfMavVc7ClzTd5KeI1y2o2BxBhCkx8cyAhC2PEOvTgG5J2A8cE+qRfZx5lRNlYCufS4UbKH8KFszr7dkEEe4sO5cuhy1CbqNLWPCN/ooh2Qau3721d6j+irr35rB7+J377i/LYhXIYj+vjjn8QnteSIwFmFwpqPzYWL8Y/MRfgjz46ICLiHfxP8ByeUfKH9KjLBPzzT33n+K139U7Jjo71DY59jn5fSuBH4OHYRH9f3uV6IKQK/XA5HyZGKtva9ak6rEZmB6I6oac+3iV4OMbSc1Mu3+eRIXGRdbzuWuOgCgHETDoXzAxABk7z/B1YMGPLbEOMZFBpSLklpr3lQOXMFgCLCIWnEtZ+zrwOOCa19xJ2SeT4cNqEoII59wGz1aT80OTHTB/vooM4QgEIT+2iD8H66lXWmSH0N+KuvNnfOmvPYhnBZfOMTPyd6XcJTZQ12DLM8Jv46/EEcL75BrNFR182YFbCLfyB/wL+Uu+NHuabsnH2lL+IfepM1ps0c/pu8qkdrnwLmjbbz/OckUm/WZ8p/nOci/u/v8dHTWKywqYuDdC3iclWjXfb+MojxE/XQ7jIi8kcY42ILExmA3A6Q13HcxIlyszYwfJOeR7J7WxbIdO8ijjbH3OyGcOod07PUQvsurBU85+xbX2mvCo6afD4pE46FlLSvaDiqkB9LUQWdjRhR5z+1b4m5u8A1OaJdv2C3yVMFnNc2hMvg28d6RhQ/jHfijgztHMhdDv48Akr++VUJqy1Ui2fmbOC/XqV4nf2W/4V/PAK3TpuZ4D9GYDqnSp/ah02e75/yP+sovearAUj89fcfXpdgEUh9a24TZyC22hGN7zU8nj14oPeI+BkIgccwiBUGhgLwIIzgAGQBlsoj1yvREnxeMZeZ1ki6nmB6JY91SRv5dg6KOM4x0jgS5VtXZClnzn4dUyxC1CfKUFapmVn2UQf+IY8F2Jd96k8ZhNwNHO0jTSbZbSgTziFfinkw7IenT/RCqz45sqnvNbTneZXjl+GI6Pj5a/d6JmtcjUB6I/xxfXAohT8d+T/4t2qwScT8O49/55kLKDqPf7IIqGiDj4fNiH9LKt28UIHi35z9YSofBdjUjij2KWn+K6owtR8mQzt5MQMRI6JN5dtWO6L2vYboofF7RIR0BgbFBOAJGGAw+qpIzCzjyXEhvIbl9H3kA4RFlZTeAhPWIiQghyMdv8Y+YqOvmtqnbCg6Z18Z1CMWIKSQRYmrXslKpHiL3WMlHIx/WoK2oLALzNl3e6gsWXxyhBfsmJpjqmB3dzcKrGDLOyo9fP8WWLUj8qo5vu3I17d5RjQEeFEHwb8WfwYt6LoAfwHK0IEaxAiFf2tUhvmn1Cn+5yeGztung2UbC+xHveF61WK0Tx1q+nDgf2N/tDtfa7P0NfynXPHfIyIvVthcvv1/AAAA//947cVUAAA+BElEQVTtnQegZVdV9/e0N71k0qYmgSQSQRQ1KEikiSgIiAJShI8mSCAJEAgYREoIAQGBJJjQNUAoQhBBwAJoQDAISlPQkDrp03ufN9/6rbXXufucd2557913373v7j3zTtllrb3X+a+9dr+zjooLfeTuuuuunuXmyJEjYdeuXWHNmrVh+fJl4cDBA2EW/2aFcHTUsnE08G9WmB3wsOssJDZbLvxHfPxpIvGXtHaxlJYMglDRJERQZ5KXeEcjT4nc4C805a0df6WoUeGhSeJlNOZN/GeX+UNT42ou5DHlL89BCkj5vUjl8ktaFYXTiHeJ7OWZNzIict0Ztm/bHpYsWRLmzJkTOU39bfXq1VPPZAZxmA59W71mdVixfEU4ePCgSrLAX1Q6178q/ognaDPsRv3TFzwT/KE3FglsNvAPQDU9NBLX4H9EfBv6X+Vfp//Ov8gXrCv8yQK8PVfEaDjJk0aAUqr/WqQwqnluVf+MhpF5om+7d4VtA6xvs4bZEB0+fDjs2bMnrFq1KqxYsSIcEsUwoAoYAYCCO1okDVGUCYYAtIBDIo/O5jXCW26oCnBybwOhGTEqeCrxWVT0CkvgCBDlJqQJ5pGXTvkfhZE7SZzyH1ViXPiTiAl/C/OEck/4k7dZo2LI0MSYI7tb+Y9KheHlr+M/RxRjjxj4LVu3hqVLl2ZDlIi53x57bYh2794d1qxeFZYlhkhlEvFHxZvif7z4owWl+BUqrldGo4F/lLChf/GLjIM/9Orwf1SUKtW/En+pCI4m+lfiL0UmrE7/lZcSMrlYbhv8qX9G5s0Lu3buClsHWN+yIRJDRCuaHtHBQ4cFvEfNiAgwtfoGQLGlRsWsBoIQngG7GBYFkTx75Y6/VexucDBO4gXgLMgjkFj+8JW4avhq+ItRgF4z/hAmN/DApfytjVXPX32FP8pj/Gc3yi9+0Jvt+Uv5S37xho+KpsJ/ZKShGPSI5s6dKzF743KPaHxy7rUhYgRirYxALFN9kx5RDf6sEQYiW+HPcFuHP/CsegZOBaW0p6r6pyqnCjkW/235Qz3R/0L/jKllHP2o8KeC0Cj6iTRCUX5CyOtE6p95om+7Ra5bt20LixcvHkh9E1npJxkfeqcwdq8VgxbaKjFEK5YvDwcPiGJQu7pDNKBYnElJ3htI8lh215pZwKQRJU2RlgTiNKmqg73ASPxmSYvGDZg+NOXfoFPKoxKHpClcAXXnL3f10/yN5Y8SjWplAA0y5AR5RTU0m41ikw3LusX36An/ERma27lzp7bQsiFyAfXnfTr0zRp+pm+Of8xBij9Fu1kZFVyEnYExYrRUdSX4A6CNMKUk6STRrAb+dTgMfEf9G8MfXVB9MGZ1/Etf1PlLnlVrirRl/voWvVL9V3OoaYQqd1xBI3qRFSqLWH6NIxeG5nZKj2jb9q3ZELlQJnvvpWL40NyaNWvCsmX0iA5SL2ula187Vuvy4R0jPHj1rOCRN2ADNuyJBw+J0vD0SttTE0ZK0QTu0JV4TfnHJp2FGzfn4vyVDoazyh8OFCBGtNTi6R48aa8LiuZbLpHkTdJCuswfvWiUX1NKpJG5I2G3jFkzNDeoLTSkMwyul/rmc7Jr16Jvy8Mh0TebHwGbBrAS/sRPq3XxrMMf3wdcR1jzZiBN8K+49/QxYoMHuI5vFf5Ehakm8fRyL+Pf+l6RbIM/uioplQaPnl48VMcJhZ/GaOi/KljkqYkiDVVpiU5OLU88UY8Yf+sR7Q5btmwZ2KHwoe8R2WKFNTI0h2IcMvDQ6lB82AfHM9bvUmEDIBxhgjgJmOVgFj9VHAdTTF5E16SAX2AkiJ4tEywFXJO4yqOG/6iy7IC/MoxZ9Ojy6kpJto/KBFfKX/OhcYUJGUz486qQT/KYlh96kkgZUv75tNBkscI2GSrIixWQTf+66TBE69auC0uXLQ2HZSh8VHs9Ip8CW2X86bA4+MO7iIM8eTH9q+KPEHWkcWx62piswL/2YCS2h/NQ4B9UC/PIphn/Mfof2Td0KqHv/EX/STdW/+EvWqT50QuZaJRf8qJzTRrBMkbDj8UKzBENqr4NvSFiaI4W2tKly2Sxghgi/fZUqvLxBZBH6buDBHeKk9irwZv4cgFQXGmlFAbDAaTxeBFKwsBaVdCGhxHW1o3yw8/gOVH+VgahW8NfOz6RcZU/lYJm1bJULr8EaK4oL3S5FZEpORpi5Z87XxRjhxmi3COKwuzTWy8NUTECsVp6RMwRHT5kGFM8CYYc/1FWjn+fo1XvOvw5NgWFqkcxjuJUnq3tSKUNRNE/eRDFK/AfgdyMP7g2jZQcRNp6K+G/of/Qhbf+kVLjyUX8S/wpkAYSVC2/xJeM19U/BV0pEjTnxVVzW3OPCIl2x/VSMXyowJdv0yNyx5ATeFKnlkPe8IgfH2w5iDSOXAhW/+gBxqii8bOwRgx9kghGR96K5aiW2PAZqdXyl7AYHNmV+Du/sfzF2Eg64+8Za/C3IQMjTRx1kb/mNpa/xMzjUVahrctJddXc4A4VFEWa4Q/ToW9r160Ly2Q1JQ0/w5GglPmbBM88Ov5sRVlEciv8uT7FtNEsKVlomUEyJryrjulDe/6u98Vd0wmRxKVe9mxXdCp9J4m+S1a0d0PLtar/RNIMElkjWqKk/D46o4uDduWhOUTWNddrxdDlpGtlFQ+KIYYoQkfKI+B0IPCmWCjDScNpYYkSFWYLnDNcJ4hlxRpaQAVuKQ1LCCttjWkS/Eiqd1MhMOdgHMvfKn0INePveWrQTfhbxuCgLs2flkbz7aGSjnfGRzSXkTfBFf7IhH1Eu2VobsuWvHy7IcH+fOq1vumqOfRN5mTThh+4Qt1S/INbd4o/eUl1ScOq+MPaRP2rw7/rU6F/kYHyjfpuPDB8iYsv7fhroip/oTtL/NLGbcof0sUoiDyP4U+++B/1z7VQcyf+IyNzZSh8dx6aSz7XpB+nQzHSHpEvkfaPzF0bIaIJrij4KXi4lx4IaTjtbktqjSPeun8IxZFnkuGouAnXPae8A+KYwJSjNf+odzEjSrK4OH9T7yp/40tOGC6o8idf8CftmPJLft30Esv0w0vEUMG8YtVc3kdUfI6+fJgOfVtbMkQN/IFlq6ANS3X4UyGiM4pM0DsWf9pA1HCMiXchIv513NzS2wdp8IemVvaMX4ur5R91sxV/Tazpy/xVayr67/qHDmldUNF/1T94Nqt/JJe6j2jXjoFu+EmdFyXr0pvmey8VgzFrekTrZahgSewRGcIjzBSJAFVwINi0FontzAGlDckZmAGVwZd7+dHimgLorJNEQelmGwKltRQVRklEOp3wj5kwsxHTaT4S/tCBmfgTI+VvLPCPafVmz+Znz9Xy25BCWmKjT/lpoe2Q5dvbtubFCiLuvna91DcfCndDdFBGIBz/Kf4K42HgFPmJsUn0T7EcK2aEa8hr4M+aSVHsEdYp/jWm6A1BdfxdT5Rw1IuCv+tpS/5QFpdmKeofvaJU/1L+qsqa35hp0rtemm2Ut7H1D0NzO3ZwssLgrlIdakOEYujQXFy+rUNzCh56Ad4jiFAQlIzSWgEY/KdlE4FisBFg84DjThdDuysAXomaP+ECYlsxoy9ysYS0CZSm0E75EwviZgglLv/H8KfnpRkychX+MURJpfyVc5FxyZpmtcHfgsivFEdopuU3Rla+2aKpzt+PHGE56aCu4jFBzfxrrw2RDYXLYgUWB+mcbNSNKGrwB45KCxQkbCz+/NuMxZ/qB2QT/eO1cBBTHqB/LH/CbBgN2ubGy7+q/yl/NSbwV9Jl/qpT8JfQNI3yVw/ybjLy+seGwneEzZsHdyh86A3RmDFr//oCYsZ1tfL3ihpjEIHJk7VmFBfmW4QDIpZmx16OhCrcCAc94m3H/EDNGBpljWW0KvwtRGLFDNTxb3Ru6/krgNVAVfhrvmNeLDuqxFZ+KR95kVx52cmg8yc/Db6Wdd3XsHN32LxlsxqifLKCyaUfr700RMWqOU5WkOXb7CNK8U8zJ6pDxBz6J1EEZHX4w08xzb3kDP/F0nAJK+JW8J/qU8pfjZikmgz/qv439M80KQ1Hn5S/5JVn+Kf1T1F+1VWL4/XPXBkKx8Bv3rw57yMq4WASL71UDB8qWCdDc8xlHJJ9DREGBlz5+lTCfHAAeZTxZWn5a4NKYmJTGkC2IS+JLgEASW7SB7dwSa9AM8FYxR39NL7EBfT8i0AT0niOiz9plF8b/paLMn/1k7xoHox1iT8mFdqkUj7EIX/kP8kzryO6fJsNrblHJOLoazcd+uZDc9ojAjCCI8c/wope6l80ghRrFivFn51+ZVW6DnlBgAhR/+jZoLyp/hGFSOpHsPybOH9ya3mu46/64bw0ZuOi9UAsbJW/ZEmyKDlL6x8pB7m2/xgqeZRXPcmEVarZEDWEO9mnXiqGzxGtW78+LJUz0Q7JvgY+cgMUigYDtiKKEIFC3G9jYGmU2NJRZceuvRoE8cUgES0CSZUjapPeQJSiK/KTG8phqSRMgy3M+BOqkSwM2uII87kmwul1sampyl8VgJahBCvplD9sxLeOPyKAh+eO9PpKEk3HTU4DHplfLFbIQ3MIp39dL/WtaPj5hlaZo9VGTIo/RVgZf4Z1A1sz/IFpwtwkpfjXCp1PEPWvin80VgGc6rgC2ngqtOPc0Bj+mtLA34x/K/1rVX7NJ1mr6D951X9W1ZghkiN+tgzwCEQempOWxBpZxbNclpMePswx8IzORgdwBZzswpaLfnxCtCUiIGDCfjbhihRgaMggPX+aljAFuPiQkP+QIw7+BHurhxdtyslNHD2wpvyVRgv+Qhtqeq3lb6F1/MmburryExgLIMGl8mveJZwxa86aG+QjR6IEZvytl4bIh+boETECwTsIjWpgWC3wL+BK8IcuoGm4wm4l+DNYRv1rQNtoRvxragkz+DYiaa9LiGq0Jvxp0HnNUMtfiBf63yBd4l/W/xhJYozW6r+Eo2CSKdtjVa5/EIWXeZ40/JhiGOQ52aE3RIytrqWFtnSJKoa2qwyR8qEVuiBMwGvA0Y+v6hNbXyiLvBcgRVM8rlscS0qIukhV05mOiI8aO2ia8YlMC2M1FfxtKEEyRyYq/DVf5B8nUcr8RXkoo5avWv6jcvrvfBmz3jnQY9ZW8Jl/7aUh8h6RD80dEUNUNJQES2Cuin/9AhF/PhIhr5auBn+E2NEmYFojKn7xJsx48OzBQi3i34wdsCZyxDcRO+RvvTKJH/V/LH+IaQ71nuqfGZux+u/xTRWtRiqX3zaQb9+5I+STFVSs3blMh2Kso4WmPSJpoUVwO2gNNoBVysdNmkPWC7LyWvfZAy0OIQoWLjTSBNijUtHzkwqqD4oqMzhaoeNLMwsFKPhDRWOr90T4a/sQmvK/KX/JKdkcyx+lNf5aGh7JYiy/Di/GHFqpCLQ47CPi91FYrJD3EYlM+thNi76to0e0LByRofC4GFnxZwfvCoi0IkdoY/EHpkv6J+9l/JmxAdNuD1CpAv9K3npOGJyUvytaAfsa/uRIRynkjtN3B74FmhoTppkgfsKfRKn+J/rXqvyui65/sMJxH5k3V3pEtliBofBBXBw01D2iMUMFslhB7YF+YkMRHxpg0jHWihiP6CLOtML2Zw/zO/5eaeOndgZCPGgia+XAQ73Ez1hgICRMMqRd92b8iS9deyXlTJM7/u34kxF4VvmTE/yblZ+AQtmIJ384O+JHekR5+bYJpI+v02OIZE6WEYgjNkeU4s8xh5/jv4o/r5QV8xH4JfyDyyhzxb88c8eBccyQolUTEbOMf9OXFvyhLv81uV7is9KVIDIcHcFm9swD/qqtqmzip3Eb/Am11GP541+ljf6pvslQ+CDr21AbIh8qKHpEqhgGGL8qkBxYgEg88Euhp8DhYihLgxRUCikWOJBWIyuB4gI9WOgm0Uq4hYmnGCQMTh1/CBmeISIvmgjf+CqJjoYjklZyUqFPHOdfDCXgGR1hhSGDvHjgVzBRlpFpLL/+VHicI8qHnqqw+vbSS0NEw0+HwqVHxD4imyOq4E9qbYOoXQ2b8hxbiAX+xMurbBMuwFRPxagpVMS/Ihb9K+Pf1Do24mDnQ3nxa1HpT4g/6Y14VEeojOUf2ZT1r135o3QK/RMipm8yArF508COQAy9IdINdnFfAy00r6i15QF+YrULsMAq71Tr3spRoIqvhloEQ3+MCUHgTBoNho4qjKQUD1OsSIWbGBtclb/FkLSSoI5/TBR56JtyTfljUJROC/7jLX+RV2OpV1poO3Xy1PYRzZkzJwmd2sf8C63jk28vDVHR8Fsvc7JL7GcgqvhXaEoRGhtaQWxa7Tr+DcuqQxojubgeqldZ/8r4dz027UI5SviX9FFjTG+UnvMnTyiw/k+YayJ7Jx9CMNX/Mn9JC0+nHvmTzIbpIEMKu+JvTvItL4Twx749fhiPxQqD2vAbakPkLTTfR8Tvo8Tvrp+Y5c/+wQGAQkqQUxgJBRohiaMlBPiIJ940stxoQVwVDPRp68viKhohIa8ESSS5CDwr/InARtlio55FI2XFSetrgvyblR9Wyh+6WkZ9TeRFti0WR46gGIO8wU6LOwSXXhqiUdn0w2rKdevi0Byr5gTjKf5T/KE5qf45/h1/jrfqZ9LN4hH/kBdtiGRVuYxfon+6MhsiwJco6hr6Z/qIp+mf8yc+Sfyqj3Ip+Is+YGTa8a8rv2fFG49Gu8Ff64koHPYR7cpDcy7+7tx7qRi00Eqr5hiaa1gNxaRBCajxT5yAy0AiV+3qY3A0xEAsj4oPNEDj+yUiHG8Ji3W2pASq4ol/YrUAu6kN4cYfSjiljPY04a+0W/FPVKMZf/hU+RvfFuUnb8Lcfh9Fxqw35ZMVkGM/u17qmzf81kuPaAk9orhqrg7/JjP0pB7/mgb867JqlFacAdZ0KsW/YFKxa7HkyhuReTL9Y9g71T/CGvinQdqgYKnlGvWPc/YLkuKtNBP+Yw2mUUj5a/pE/52/G+K0BAV/cigvc+VsRxYH5R4RUuuSm17FOCKf1tsvfG6cfGxAJYCPyJQGjEANLw2N4Vb7i48EaHOFJ6cBHZwZLT1lBIRpeINuI4b4kdqTl/hLmC61xuCZGlmrksiWTu/y2pS/xGQBhKbT8ik7uXgOnY75VMtv/MaWn9zImIJMntq+Bj/iJw/NqWj78tJLffOGH4cML5bVXbZ8W0FnqqCPoLaMPx1AK/RPwgT/Jf1TXTFtNEIYF9O1VOjoE9R1L7dGjzoDbHlUfRrL35kRRXW7yl8yo0NpRb7L/JW28HXtquOvwUWMzstPOhuB4Ky5wf39r6EemvMxa2+h8Q4MzZAYcOQF+OkVeLhTX+3TO2jkTgtJ0xuJ0SOyODT66YGpmkjiCTKZOFWqYhBmCbCPyoZZfVfvGIaPoXgMfwM12qSR5CJpKvy1lachosqElfiTUFxL/kk+JCpv7ixbZeV3/vPkp4t3yLH09Ijy8m2XWH/ee22I2HjpQ+FHOJ9Hz+hphv8y/tCbhiMswR9DceKV6p+uJi3pH3wkUtQ/VcEK/iWGhDtfv6tmCj8zgJYLwhL+hXaQ3kiU+cfoxGvBX8nU8C8P0QktjWj8+RkIhsI35cUKCKY7rpeKwdDAnj17Ar8YyRE/GCKv8W2yFLDZJ1fwgdxUGQxzgtsIUAGQjQ9Lo42oklaH2MRf4/AOQXFQ1mel4b7mqWw8I0QGuNwr/JWG0B718+/Gyz/yhja01MlLlX+R14Q/YkDppeRjyq/7iKTC2bRpUz701OXap/de6xtD4evlSC32u6i+iVy8sdUWf5W4hssy/jgLkvah6V+Mkepf1KUC09CUP97V8aK4bvgWcSP+Pb+Regn/rfgXeiwcCprKrcy/mf5Z1vRKJiONWbJYQX4YjzlZ0bdBbfjlHhEttHjWHC00NRyxgjWEWiuKITvt72gNLL0XuheGDPClqHCvAmTyoKCN2NFochG9UBB5PA1WuqJUcqeCLw6IE6JKX7Sryl/Tk1hpNlprTleZSGJNb9Es2wl/RuhiQYRnM/5wHssfwk4bXl5+nTyVX2jdJD2ifNYc8u1f10tD5CMQ3iMa1RGIKBvFsOnLWPwb/tAa7eVTUwvYFOeKX6GR4E9xCdkiAg+GcsVoBKoGa0i8JPhX6tCWuDZPleKfHE6cvw/+t+Jf1v9YfgwqVpbD65Lym77tChs3bsyGKP2ek3meDsVYL6t4lsgGu1FZrGDwkhI4wKUCxk9BA1B5kzB0QUcV5K6VMZc4ulYuPykFPBKsBoi7aw0R5b1wArISf0laQJ5Kvxl/8qfhSrwgZw+d8XcD2Iw/VGr5S45VRZPy62nAsooHxeAnofMcUeWT9NHrdOrbkdE4AhHlAYYZbFKHXiT4L/AHzuSvpH8R/6n+aQNQCUX8GzHVXTBecEr0r9A10gkPy4KZnII/GioBvB9hWE8eoEfeO+YvUXULh/LhYq7MX/yEtvsV/DFE8BcPr3983x4jELlH5NKc5H06FGNd3Ndgc0T2kfnYajjoMmAA5AYCASGuAVPx9vcYphGSi7VnJBAF0riKJVtzgEf0RHmUjb/L3Ywe/AmBhhFO+av9k7hg1EP9iXt3+EOoSfnJFhmNefMe0caNg6sYqfxm8vO06Ftcvj0qhwyjY45/5Gy41gfTP8GU/i4P2Ir4QxU8Ht6Of8efeKlTlRFPxz+VOs+kUXKi22P5w88iEEd1tpX+CxONHtOQpHBCgHzW8pcwazxK7CSt5sv5y72h/8QTWtBUuii7lWW+HjJsixUGdQRCZGGfqxDeND9Mh2I0xqz5uBFYhRyk7SRoZWhKEQNIZAUPYNW+gIKUF0WW3DSCRMWPZ/y52TNda1Ms8S+aUADK+Gp8BZoEqyNkdsGfVIARV+Ivb+bgKz2rhGeJf+Rjn927cA3++FtOIzmJn/LXwGbl17j2U+HsF2FoblBbaF76mX6fHn2z5dtHZDGP4l1A5RW24Z83d83xx346VTPXM00CeoWu6qU8ql5yd1QLvjUMDnJwV6z+Uv4eUyKIkxBN21z/6ZlovrmZgih/eNpQGsFOtcrf6Lbkn+i/6x+VgOqqkJ0nq1R3yqGn7NvLhkg/wuQvvVQM39fgY9a2WEG+LDW9Nj0AT3QC2IZymB/vjRgx3AGXBKqa4S8zqNZrIVD+SKyKIA/6zLs9+Gm84lPwIJU7QJiwEG95FwWznyCXEO3JWewqf31vyl8pCVOhoXmp5w/lMfzVk8lTDj2107cHdae3SW7mX3upbz5H5EPhNjQXUZTin0oWdBEkjiBcfLUXf1dPLg38a0y8JKHeaJgl+ofx0hDlKTEkrOjRE2+M/hPHaJHSndKOLxgc178isvIhguQNexP1v8rfqwDNbA1/JwO/1Om7JLahcOsRDaq+DX2PKN3QqoZIvzRVNTMf9BgSgIEmQYUCR0IadTVQafQkvJUFKe+WGyWwKKAUsJmdSKGVwtr4myFI+INUYwVpNTbg1j09yClpi0kSCIVYkgZ/jRONGRRUeZS4vWlrs1r+Cv9m5Z/LacAsJ82r5kyYfXzttSFC39bJWXNsaG3oGwJy1PLcwL8+CbD9Z0hS/Dv+TB8T/VMK0IGS4Z9hMLMFmDihKooD7YZDL/3N+Jf0X0YBlIIrGbQlfqp/EIAEf6qWeo/8xRf6uqq2hr/2nJJUtfUPlGv4z5XtErtku8Qg69vQGyL2Naxff5IoxmI9DRh40mJRm8NdgaUH68iTHK+DjyJa7gRy4a6JuOPHRWKCPJCqa0kbikIMS6pXiRd5Spoqf/YPkBLOxl+okyxuajUe4jGGP+kkpSQ7WsOfPJAJjVXLP+ZNozXnH4mU+OsP4+3YrhvsBnWoQOUzBJdeGyLdR5TMySLiVvgHnwyNN8O/40/RyqXQP17kL9E/LIHGg2niUv5EaKb/xNP0XKL+OX8SqaGRGA1Nl4gl/sRWCgl38SOO/D96lA317eofiVrhz9mOO+IIxKDq21AbIt9HxNAcH7CxnFTAAGhBZAEcvr6iHMQ0bBFdHXcSpdSWApnqFDmGIDEM3iqCtsbgAhblru+AMeFvPawYKdJT4yReozrNY6lInPKHPRiP4wLGYBz82cyu2hV5aiYr/HUfrvoR1/jPlV+M3C09ons23pPniFw2fXrvtSGyfURyssLiVN9EOK3wj+x0bAtA4qyyV1uQ6J9uIJUwH8tQ9dMk6Ef8hVPxREfMWCgxuyT8iT1LFzKQmDec+tqT5MX1r4r/om4gRZGEB1VU8WvOn0rFaoSy/ivThL/FEuMsZOGvQ3M7bJXqoM7JZkPEhlY5fXvpMhkqAOwCQIWfXBQ+1OQgipsYJjUQChd55i5JsCC88YgjPc6Mgr3HaAmcJJZaHggTKrRkfwBAVcjiLb76Y3oaXuZPCww+BOlmWYlc4q/kXeHMcLqhI53mqsTf6Ff565CIrhNtzr9a/gXzR8L2HXaywqCOWauIhuAyHYbIfyqc4V/wi54IupriH/1TNQS1PBM/wb/qUYOKv8a4oicCeHSjwL/SUAUB1I2UUf9MLZSL6t8Y/Y/5QY9UNSVBWf8treW1jj+l9QxV+YsZlUAvL/o/hn+l/COibyxW2CSLgwZV34baEDFGvW/fvrBs+fJw4gknSI9ItUJRolASwCmKARy4ATzFA88GOLwV0GDGIxRpQZX4AijGyZRKJCI39qYxX6TOJo7ii9wKGjzGSDFpI1J8iv4Wz8FLjhvpojmKfprZLvI3haP8KMMdd9yhp1YsXLhwIH8xcox8Z6hHrw0R+rZc9O0E1zfBv1bmyFfxngg6xb94K5qrOuLRMSgKaeut2CRsin95TvRP9VHou/5hDlL+pkcNZSueXM/g6zqpz87fIjTmfHgXV9H/jvjXlN+rFyNqV9W32+8Ie/ftDQsWLBhIfRtqQ8TQ3P79+/UE7jPuc5+wcNGi9PsOzHOhJNHoAHIbfrAiFMtVJaL3nkw9uGr/q6GExNFkiRJHHcXbW3nEci6qYwRKQn6meNu27eHmm2/SYblBVQyKMwyu14Zo79692kA544wzAo2UgXdiLBjCRltUcVRtXDPEy42J3HVFq/aeLCpXNUgkjPE0uQpFnugx8uyectfeUvRAr9ksvnXbtnDLzTfr9MKgNvyG2hDRI+KsuW3yIQ8ePBjWn3RSWLRwUWxZxe8PQBwLCoRYxePNu4DBjh2x+DYEEPtFhHn62TLspj0uKnB5NkQpAB1sZjCErqTBb7anlxd51EZVMY6c8pf4EqyRlF9MXxggguCvXS8zIHY+HUSNl5XFhgbdL+VPeGQpwVJKtT5Cy4czhIeQCnv37wt333WXtsyOOeaYsEiMez5ZgY/Tn67Xhgh92yHDtgcOHNDDTxdhjARD9Ey0PpabNnYEb1qdAyr85M8aPOiUVNDmLekkJA40ECfVP8UsHkJ4tuCfE+eZn031j1OzFddCx8wH0Rv6x28o4Qr+kgkN1UQxoAl/1z900vXP+bv+EaY6KwpOfM2McVD9r+cvDCUfDG0iR74hDT70jd4RZe2V69YPUQ61IQIA9IhQDIwRwwYYJD6+gkK+poIoGgT3q37kujjt/KDh9LgTH+d3D6ujoxGTS12cdn4kdx7d4g8dDjzF+DD8snLlSp1IHUTFSMQ7ox97aYjQKypOeszbt29T3Tt06JBi3nHvd8dmHY6rH6QuTjs/aDiPbuHfeULbn/1e9eN9svxJj77RC8IIrVixIsyfPz8bIoQ7WddLxQAkDM9hgDgJgBU9bogIK0CkzaFyyVLwlkPKbx4vJeF+5ZiNNw8fJP7kmR7UiCgCKxA5Y857Q4T1ynWrhdar/E43n+nQN2/8ub6V9xNZBZ31r339g15heNA3Gn4+DD6I+jbUPSIqAQCPIqActNZoodFycyPAHadVqXx49ScdfrGC9bjEs/ip2cG3oVyk8fh+txie1t8aaTS9XvqbP0NwzBGhHPzx7DJqlGpqn7IhGp98e2mIyBmYp/FHgw+d41kNEQ2/StZdV/DO+ocQGvrPM/pGj4jl24Oub0NviAA5yoEycOfPh+Z4dpcqhftxd//0jn+alvfUERdXFyelk4a7f0qHZ/dP7/inaXlPHXFxdXFSOmm4+6d0eHZ/p8kwnP+5XzXNVL5nQzQ+6fbaEJE7cMUfOueNPs91iqfx4o/4jrk0rdP2e6s4g8SfvLqucfdyeTl7ce+WvmVDlHytVuBNouXHNhKYDoXwLHVLMZzeTL9PhyFymWZ9c0lM7j4T9C0boslhIKfuMwlkQzS+DzKdhmh8Oc2x+1EC3dK3bIj68evmPE1YAt1SjAlnYMASZkM0YB+sz7LbLX3LhqjPPmzOzuQk0C3FmFwuBid1NkSD8636Mafd0re+M0QcZc5KmuyyBMYrAVbpHX/88eNNNtTxs74N9eefVOG7qW99Z4jYz8Pu6+yyBMYrAXaVs38pu84lkPWtc1nlmGUJdFPf+s4Q2c7rbbVLi8tiyG9ZAg0JsHKI3eXsp8iucwlkfetcVjlmQwLd1re+M0QUNbfSGh88P3UmgW62zjrjOHNiZX2bOd+yVyXptr71pSFijohfcmTndXZZAu0kwNEm/CAYY9bZjV8CWd/GL7NhTjEV+taXhoiPjHJwZDx/eePbMMO+edkZHuA8O/6yEWoup05Csr51IqXhjjOV+ta3hsg/OWPY/oeyZJclgNHx8+zynFB38eC6xj3rW3dlO6jUeqFvfW+IBvXj5XxnCWQJZAlkCXQmgWyIOpNTjpUlkCWQJZAlMEUSyIZoigSbyWYJZAlkCWQJdCaBbIg6k1OOlSWQJZAlkCUwRRLoe0PEirnPfH1HuOYbO8MNdxwIew80fiNoimSSyfahBBbNnxVOWzs/POnXl4UnP3T5tPz2Sh+KZdJZyvo1aREOBYGp1r++NkSbth8Or3r/XeHb/7tvKD52LmRnEvjVMxaGt71wdTh+Rd431JnE6mNl/aqXS/ZtLYGp0L++NUS01J739tuzEWqNiaENRRk+fMG63DOaIAKyfk1QcDmZSqDb+te3hujT124Pr79qY/7sWQJNJfDGZ58QnvKwFU3Dc0BzCWT9ai6bHNKZBLqpf31riJ528Ybww5vyET+dQWI4Y/38vReET772pOEs/CRLnfVrkgLMyUM39a9vDdGZZ/80L0zIYG8pASZQv3vl6S3j5MB6CWT9qpdL9u1cAt3Uv741RPd93vWdSyTHHFoJ/PjDPzO0ZZ9MwbN+TUZ6Oa1LoFv6lw2RSzTfB1IC3VKEgSz8JDKdDdEkhNeFpD970vzwa/dbFL7xoz3h+tsPTprivLmzwi+cukDp/M/N+8O+g73Z5tIt/cuGaNIQyASmUwLdUoTpLMN08M6GaDqkbjyPWTon/Ms77hVG5s0Oe/aPhoeff5PeJ5Ojs35uUXj/+euUxAXvuyt88du7JkOu47Td0r+BNkQsITzzPovC4SNHw4e/vDUcOtKx/GZsxHlzQnjeY1aGuXNk/uT/9g7M8veJfstuKcKMBUSTgnViiAYVS02K3DfeP7NuJHzuolOK/Dz61TeH2zcdKt4n8jAZQzSZ79wt/RtoQ5QuH3zY+TeGTduzJTp+xZxw7TtPVSwP0hLdiX7LbinCRJR/kNN0YogGFUuD8F0ues6JuursO9JYfPPVmyad5ckYosl8527pXzZEk4ZAfxGYDKimsyTZEPVW+tkQ9VbeU80tG6IpknArRWGM9ZQT54Vzf++48KCfXaQ5OP/KO8M92w6HHXtGw013jZ38O2P9/ECXeOWyueGOzYfC/9yyP9y5ZewP7S1aMCvcZ918pfmDG/fLzv0Q7nvygnD/ey0IBw4ZbfY3HRktF3yi6cpUmr+dsmpeuJ/k49jlc8Kt9xwKP739wJj8k8e1x80N7zx7jRK67id7w+V/u1mf/3fDAZ3ArOZzZN6s8EunLxTZzA/3bD0Uvvyd3RqfydQFI7PC7SKrup7mmmPnhhOPmRt27R0NN9w5Vt4Q6UTmxy2bE9afML5vqRmMl261yFKaw/DcSr8ofydYSuUErn5FhslXCy7kUJTwE8EbmDtwaOyk+alrRsKyRbPDRjnC647Nh8OxgoEzf2ZhOHHl3HD7RtHNWw+oLqf0eZ5ouiqdJQtnh9PXjqj3j4VXNY+/eJpN+m/ecSTcVhkyQ79OkKOl9stiAMqYuqVC94H3WRjWHDcv7N43Gq778d5wt9RJde5eos8rlswJdTw8PrrBgoali+Zonfaf1+8LBw8f1Z7UnNkh3Hz3wbB9t1VEVUP0pf/YpTr9AFnAwNTF96Uuu7FGT8f7nT1vfu+W/g1kj+j8Jx8X/uixK10WpTtjrYy5ulspRus9564JDzhtoXsVdwzWee+5s2S4nvKw5eGNzz5R41zy8Y3hnCceK0ojEy+J+/Gt+wMTgjff3RjXnWi6hGztI4C97Jw1ooRmHNNIgO2NV90TdgnoAe3X321Dcmkcf/6TD94dPv+tnXISQaN8V35hS3i+zCeNyIob3P/ddiD83utvDYD8Rx+0ZdGf/caO8Nq/usfJFPcPvmKtKMnisGnH4fCwl99U+PMwHpm//v+dEJ768PrTEarfssQkvnRLEepoz2S/VoaIOYMffKD5snjHksvnaY9YHl7x5OPDYqmIU0cF+IEvbZXG0JbUW4aO763nBNJQulsaP098yPJSOJXtlZ/fEt7391tL/hNNVyIiL+T3dc8yHT9X9P+r/2WNL+KdJgbq8286hcfwvRv2hT+85DZ99sv7z18bzvq5xeGQ5PGXZa/j4Tgb8IxHrggvl3pp8YKyDKhj3vnpTeFr39/jJPT+pbecIo3pkfCDG/eFp7+5zAPjwAjBfaTxzM9zu0MfLv3s5vD2P16tXu//4pbw7mtMtqkhevc1m8NTpYyrV87zpHqnAf7sP7+taMB2WmeUiFReuqV/A2mIzhXjcPYTjq2IxF758I/701v0hQ1Xf/2q9eHn5MM2c7v3HQnPf8cd4Uey5BGXVtTN0uCPMXrKRRu09cf7RNORtplbLS1ElMIVnPPB6ImxEMEdraRnvfU2aV3NDv8mhmj27EaYx+H+Cukx0ttplc+fbNgfnvSGDZMyROOV+YVPPz486zePSbNaPKffsvCsPHRLESpkZ/xrK0M0VwzR9993elssIaTH/urS8PYXripVmFXh0WB65XvvKrzdoBQeTR7OueyOUgU+0XRV8lTwf/vGk9X7I/+8Lbz1E405muf81jHhVU89XsOOjB4Nv3bujdrQw4MG2nXvOU2NTWqkHn3mkvCus1c3lcH+g6NiAG4v6hhoNTNEjDRwWshxy9sf6NvMEEG/mduw8WB48hs3aI+t0zqjGS38u6V/A2mIqGsXzp8trZoTwuMfvEzl9DuvuVm6+ke0pUKLCnfZS1aHR/3yUn2+5Z6D2jL7vrRy7nfKgvCM31hRDOt97Xu7wzmX36nxqhX1V6S19L6/3xJukd7PQ++/KLxBekt0lXHPe/tt4bqf2MngE02nhJpcnv3oFeHVTztBQ//xO7vk7L17dJknLaZLX7KmOH36SW+4VYcJFspQ2ioxXl+85F6a5gv/vjNc9FE7r49lorhqPjFkH/3KNh3q2y7Dmtt2HZmUIRqvzFHuBSPtv6VmvubSLUWoIT2jvVoZIgreCZbud8r8cPVrTip61FTq9LrpLTz8F5aEF//uyjBflijjHKM8pwZl74HR8MaP3BO++d97wyLpTbz6aceH3/jFJUQL3sjSF7lMNJ2nT+9OiwYlFbM77+n7+8uuuDP803etx4TeferPTtKgy2TI+71f2KrD/RgOMIx7z+c2h3+U+Iwy0PPysxA3y8jBY19zixoA4jUzRJ95/Uk6FUAc8nbF320JP5JpBIbl//hxK2WvUGNkp5Uh+u71e8O7PrNZ9ygx1Hjxc1eFE2QoHfeid90Rvi77l3CdfGeN2OTSLf0bSEPkMmk1wQ0QvnPFaYGNXlTCT33ThtIQHOO5n7/4ZJnnmCe9jKPhQefcqPHSihqjRVc2XRb+R489JpwvwxC4N33snvCJr+3Q54mm08RNLu9+8erw6DPNkD7loltlXqsxJs0czqN+aYmW70OydJ25MVy7xQrVfD7nbbfruHOahYkOzU1U5vBu9S3TvFWfu6UIVboz/b2dIaL87bCUjkxcI0O4f1YZwn2u9C4uiL2LD//D1vCOv7H5SjcC8Dj70jvCtT9oDFvRo/7K2++t8yc0ih7y0huJpm6i6Tx9er/k+SfqkOCo6P6DY6+HOdHrLj9V9/d4XH4L7XV/bUPTaXmoTxhFecnvHqt/xL9cjNCVny8PJ9JT+q0Hmg4//x23h3+XeSNcnSFiruwbcXidn+h4suh8Oj+7fPFsNYQnnTCiNJoZIno9jGx445PIv0PPNQ7pVfPZ7jsrsyaXbunfjDVE6YF8qRKk8qQbTA/ikMwn1g3Nvf1Tm8Jf/eO2NIlO4nqriJ7SpZ+1Mdq0gh9PuhLxysvLn3RceMHv2FzY9bI4gYUHX//RXm1xVqIWr+1Alebzoo/eEz75L2ZICwLyMFFDNFGZwzsbovQLTP1zNwzR+16+Nvz6/RfL8PTR8MCX3BD27i8vTGB6g8ly7htkgc3mnTah4gZlj8xt/so5NxTD217q975sbXjozy/W1/v/0fXFwqCJpnO66f0xv7I0/MWLbK7FjeFDpSzvlTLh/vk/d4XflNEU5rAe+Uqbc77ivDXh4Q9YoqMGZ73sRs33lS9dEx4mvT96gWe++IYxuvlLpy8IH7vQelHv/Mym8MEvWX1SZ4ge9guLw5UvNf6XyVzQeytzZOSLH4Vk6TeumSH6mIxwXPLxxnAjcdP5oL+TXuuFMmfsrl2d4fHq7tkQiVRaVV5MHr72mTasxY/r/f11ne00TivqtAXjHwHjRYsN18wQjSed06270+v52IXrdRjSww/Kyr0fyKo9WpGfl6E3Vt2krh2o0vI96y23hf/8qQ0tpjQmaogmKnN4t/qWad6qz91ShCrdmf7eDUP0rctO1Z7LrTLs/ZgLb+lYZG5Q/kuw90zBYNW9+Xknht87yxYw/PwLri8WBEw0XZU+7/Quvnmpzal6Q/U1zzg+PPNRx+gvQb9F5o0+9Mp1mvQJr70l3Chzz/SWGJb/4nU7wwXvt4r86++6dzGfs0+GGauOKQR3DK+//EqbK6szRC96/MpwnqwExr1E5sf+pbLAAX+GQz/9OpvfamaIXvvhu8Nn/20n0UvOdYXhUxacuGtXZ3i8urvTrAsbj9+M7RG99PePlTFVW9BQZxiaCSmtqJ/5lg3hv35a/imKVTLO+rW/aG2IxpOuWT7c/5dlafUrnnJc7ao/hhTf8TebwlX/tN2jtx1OaVc+CE3UEE1U5vDMhggp9M5N1hClK+vSiftOSuAGhWEqdLPq3vTcE+Un4ZsbovGmq9L390++dr0shV6ooyEMtX3pElnJtmokYJgulZVn37rcFib8+Sc3hv+QX4m+5g1mAOhN0KtIZeA0W92/LasEnys/9omrM0TMAb30980QVVfzOd101KGZIWp2xI8bjWyIXJod3DtRlFaV1+MfvDT8+Qus691sCKouG+0q6l4bIs/jybJvimWj7FN4uHThOafK3XPedpsqCu/tWjftygeN1BBVQUs47uOvWa/GMV2+PVGZQ6/VtyS8mXPlahae/esl0Il+tcPSP7z1lMB8xdadh8NZL7upnlGNb78YonNkfufF8keDjsUUfuyO69Plsu2DhRPf+p894dof7gkXPv0EHYZku4IPM/7z2+4le/dsmXSdUaX482SV6yFZys4wn2/5qDNE6RJslq9f/jkb9k9F+PRHLg9/9szWQ3PZEKUSm+RzJ4qSVl6PuuCmYn08rNkA+qW4eiztSqfZYhMd+waYGPzq92zCtF1FPV2GKM03+3TYf8MYNi4dIkwrj899c0d4zYfKe4DalQ96jOn/8AOni0GapZOrVQUjnKXibCxODdFEZQ7PVt+S8GYuG6Jmkmnt34l+tcPSO/54lSzftlWrj7nwZt1onXJl8v+JD7Hwr8rKVJ947xdDxGnVn/hTm79h5ewjxegwb/Xg827Q4UDXFTayf/f/9oWHSEPQtzh4OS+VlbnoIYseHiSLHtjI2omrM0Qsp/7WZadp8p17j+gCKzavu6PuYX76eNlQi5uKHlFdneH86+7d0r+BHpp7g1TGfxA3Q/o+mVRY//GXp4YlC22pdboMkzj0MOhqL5IxXJaQniWrc9gt7eAjzniG2CaaDj6M+6IE3/nfvcVycPyZtGUxBRvRLpB5rnQy+HEPWhre9kLr8bFq7i8+bSuSjpOTF77+rlNJrqsEfU+VesilXT493hdkRSGbaNkD8agLbg5bZQWTu5RGaogIn4jMSdfuWxKnznVLEepoz2S/TgxROyyl2ws4qeQZsvmTSXt3aeOCZc1XxBVlvTZErMRjmweGkSE1P42AbSDflHmu5YutjiDfX5FFCuf9pc3jpI1OL9MHvrg1vEuG7dy9QDbWs5EVh7F9qWyQFZtUuEc8YLH2pPBgyM8XB9UZIuJ85E/WySkTdloMq9+u+qdtunWE+or5q3uvthVzxO2WIWr3neHVzHVL/wbaEJ39hJXh3CcaCPhon752R/iOtFz8J8ZfJGOu58UxV4zN331zp+5kPll2NAPMdcdbl/rqr24rDh5MK9leGKL0SHg+9hNfd0vx+yQfvmBdsdcJI/UpKR8Twxyd8zJZUXesHFeE+8NLNsgucJvLQrm+J5sRWbaOQ/G++d97dOKT5ZztyqeJ5PI22aT4uAdZa5bjhFjBg1HiSCX2YNFbwlUN0URkDp1235I4da5bilBHeyb7dWKI2mGJCowWuu/g/+FN+8KXZfPqHlk996D7LgqPlZVpOPb1/earbpq2HtGrZQn5s2UpOS41NLy/U5ZX/3ZcXs07S7VZsu3ucxedrEfl+DvbOahj3LF4CRm4LnJaBCc1cHwRIy5PfcSKYp+VD/mRtpkhYrQDej7c53zq7t0yRO2+cx1v9+uW/g20IWJp6NUyV1E9BiM94oeljix5bOZuvPOAnqwAcHDtKuq0lZQOiU00HWX4eBwegH86vvtgUeYrZHmobwokvOqu/eHucPa7bTOuh31AjiFhGCF1fixLu3x6mvuePD9cJadS+KkO7l+9Vw0R4eOVOWk6+ZbEq7puKUKV7kx/78QQIYNWWCKcoe2rZWWnb/LGL3Us7Wb/ULoNotc9orQMbGx/7IW3FFn8/bOWhYuft6p4f8Qrbiqdc5ceJ5YO2xUJ5IERjatevV5HV1L/9PmjstmXlXjumhkiwk+Ts/jYf8V8sG+UxZ9eJ0f8+O8OdcsQQTuVEe84rzPsrf7aLf0baEOEaJ7068vCix5/bKBlwtDaFtmrkBoiJt5ZEvkHD1+uXXAUA8PFTud/k57CxVdvbDrkle4G989Ai+Vf5awsjtnhTKf3S1cdlw6VjScd8y1XvXqd7k/iAEhW76Qb0Tjo8XWyDP3+916goCT/uA1yOOTf/OuOkoJrgFw4jJSloGxiI5/z5WDTC2WuiIUH7fLpNLjzG0EoBEei0GpCbrtk7PovZSL1gXLAJRO59ER/+09uSZPpYofxyNwTt/uWHi+9d0sRUprD8NypIWqFJZcTK7le+QfHFUNKYJQz2G6QRt5lcs5cumGVNF9+yykyND4S0hNNnBZ3X0ZND/yBsjfHDxieaLrfkI3fb5ENrLPk37ulIr/6q41Vphxgij7j/KxFfYmXM8UYfESMDI6ht3PjCSwxuLjR+6GR96tnLNITDLyeuVmWfb9P6gh0L3XXvOGk8LMnLZCh+L1yQoutpEvDeWaDOPuQmD64VfSdQ0upD75w8SkaNW0Is7r2o9IgwFWPRlJPuXz3ytOU1qf+dbucZmEnrnhYJ9/Z46b3bunfwBsiFwpDUXPF6ByWucJ0nNrDMUjMt1CZAvDq/huPN113xq8xpM0cBuskGUpkmGPHniMyr9U8rtPgzDDAzPlznU6ietr0zhg7JwUzHMd8VToGnsarPk9U5u2+ZcqnW4qQ0hyG504NkcuiEyxxojanA3CaNQuA0hNJnM503VlqjetFnjgjkgbgtt1Hxq13zKvh9ol+v1OO6PHjytRTLi+UDe4My+P4xYF/iKflq0cXLp1855RNt/RvxhiiVDj5eXgk0C1FGB6JWUnHa4iGTT7TVd5P/On64jw5zrnk/L6bpCfEiAgnPzDNQEONJecPOe/GsFN+hmU6Xbf0r28N0ZlyxHonrf7p/AiZ9/RKgJ7ad688fXozMaDcs37154djj+AV8ZifVjn00yBaxZnqsG7qX98aoqddvKFY/TbVAs30B1MC6S7zwSzB9OU669f0yb4dZxYpseCnbuUcCybeKic9XPON8pxTO5pTEd5N/etbQ/Tpa7fLzx6UJ9SmQpiZ5uBKIN2nMrilmJ6cZ/2aHrl3ypW5Gk6tYN8Qi40YiuMXYVmkFNcrdUpqyuJ1U//61hCx6oTVJN+WM56yyxKoSoAVfeyzSpfuV+Pk9+YSyPrVXDY5pL0Euq1/fWuIEAUrbzg5Oxuj9sAYphgoAadK+FEnw1T2bpY161c3pTk8tKZC//raEPFpabmx05kx0RvuOJAXMAwP3kslZWL0tLXzdd8YK4dyT6gkngm/ZP2asOiGKuFU61/fG6Kh+tq5sFkCWQJZAkMogWyIhvCj5yJnCWQJZAn0kwSyIeqnr5HzkiWQJZAlMIQSyIZoCD96LnKWQJZAlkA/SSAbon76GjkvWQJZAlkCQyiBbIiG8KPnImcJZAlkCfSTBLIh6qevkfOSJZAlkCUwhBLIhmgIP3oucpZAlkCWQD9JIBuifvoaOS9ZAlkCWQJDKIFsiIbwo+ciZwlkCWQJ9JMEsiHqp6+R85IlkCWQJTCEEsiGaAg/ei5ylkCWQJZAP0kgG6J++ho5L1kCWQJZAkMogWyIhvCj5yJnCWQJZAn0kwSyIeqnr5HzkiWQJZAlMIQSyIZoCD96LnKWQJZAlkA/SSAbon76GjkvWQJZAlkCQyiBbIiG8KPnImcJZAlkCfSTBLIh6qevkfOSJZAlkCUwhBLIhmgIP3oucpZAlkCWQD9JIBuifvoaOS9ZAlkCWQJDKIFsiIbwo+ciZwlkCWQJ9JMEsiHqp6+R85IlkCWQJTCEEsiGaAg/ei5ylkCWQJZAP0kgG6J++ho5L1kCWQJZAkMogWyIhvCj5yJnCWQJZAn0kwT+P3YGlmotRdrtAAAAAElFTkSuQmCC;" vertex="1" parent="1">
          <mxGeometry x="288" y="577.5" width="125.04" height="70" as="geometry" />
        </mxCell>
      </root>
    </mxGraphModel>
  </diagram>
</mxfile>
